<svg xmlns="http://www.w3.org/2000/svg" xmlns:xlink="http://www.w3.org/1999/xlink" viewBox="0 0 155 44.688" enable-background="new 0 0 155 44.688"><path fill="#F1562C" d="M0 0h155v44.688H0z"/><circle fill="#fff" cx="27.884" cy="22.344" r="18.556"/><defs><path id="a" d="M16.007 10.155h27.446v27.45H16.007z"/></defs><clipPath id="b"><use xlink:href="#a" overflow="visible"/></clipPath><path clip-path="url(#b)" d="M43.106 21.06l-4.49-4.49c-.448-.45-1.992-.45-1.992.486v10.277c0 .938 1.544.938 1.993.486l4.49-4.487c.45-.45.45-1.825 0-2.274zm0 0M29.724 10.155h-13.72v20.582l10.29 6.86v-3.43h3.43c1.893 0 3.43-1.538 3.43-3.43v-17.15c0-1.897-1.538-3.432-3.43-3.432zm0 20.582h-3.43v-13.72l-5.146-3.43h8.576v17.15zm0 0"/><path d="M52.13 15.878h1.788v6.782H52.13v-6.782zM54.835 15.878H56.3l1.935 2.952.34.705h.1v-3.657h1.558v6.782h-1.457l-1.96-2.997-.322-.687h-.1v3.684h-1.56v-6.782zM61.15 15.878h4.224v1.485h-2.438v1.347h2.154v1.485h-2.154v2.465H61.15v-6.782zM68.7 22.75c-.983 0-1.713-.284-2.19-.856-.476-.572-.714-1.443-.714-2.617 0-1.18.24-2.056.715-2.63.478-.575 1.208-.862 2.19-.862 1.003 0 1.74.284 2.215.852.473.568.71 1.448.71 2.64 0 1.185-.24 2.06-.715 2.625-.477.567-1.213.85-2.21.85zm0-1.456c.21 0 .38-.033.52-.1.137-.068.248-.18.334-.335.085-.157.147-.363.183-.62.037-.256.055-.577.055-.962 0-.39-.017-.718-.05-.98-.034-.264-.093-.473-.18-.63-.085-.155-.198-.265-.338-.33-.14-.063-.315-.096-.523-.096-.2 0-.37.034-.508.1-.137.068-.247.18-.33.34-.082.16-.142.368-.18.628-.036.26-.054.582-.054.967 0 .38.018.697.055.953.037.256.096.464.18.623.082.16.192.272.33.34.136.068.306.1.508.1zM74.695 20.415h-.587v2.245H72.32v-6.736c.263-.05.55-.084.862-.105.312-.022.636-.033.97-.033.557 0 1.035.044 1.435.133.4.09.73.23.985.42.257.193.446.44.568.74.122.3.184.656.184 1.072 0 .947-.354 1.594-1.063 1.943l1.293 2.566H75.71l-1.015-2.245zm-.21-1.366c.195 0 .358-.015.49-.043.13-.027.234-.076.31-.147.078-.07.13-.162.162-.275.03-.113.046-.258.046-.435s-.017-.325-.05-.445c-.034-.12-.09-.213-.17-.284-.08-.07-.188-.118-.325-.146-.138-.027-.31-.042-.518-.042-.03 0-.084.003-.16.01-.077.006-.13.012-.16.018v1.77c.04.005.103.01.182.013.078.004.143.006.192.006zM78.012 15.878h2.575l.862 2.942.192 1.192h.073l.192-1.192.87-2.942h2.576v6.782h-1.668v-4.674h-.055l-.293 1.2-.935 3.108h-1.475l-.917-3.107-.312-1.2h-.055v4.673h-1.63v-6.782zM85.774 22.596l1.622-6.718h2.73l1.623 6.718v.064H90.07l-.348-1.457H87.79l-.34 1.457h-1.676v-.064zm3.62-2.814l-.356-1.613-.22-.99h-.11l-.22.99-.367 1.612h1.275zM94.61 22.742c-.91 0-1.602-.283-2.076-.848s-.71-1.44-.71-2.625c0-1.18.24-2.055.72-2.622.48-.57 1.165-.853 2.057-.853.453 0 .927.055 1.42.165v1.402c-.207-.037-.41-.064-.608-.082-.2-.018-.378-.027-.536-.027-.226 0-.417.026-.573.078-.156.053-.28.154-.376.303-.095.15-.164.356-.206.618-.042.264-.063.606-.063 1.028 0 .42.022.764.064 1.027.044.263.112.466.207.61.095.143.22.24.376.293.156.052.347.078.573.078.214 0 .414-.01.6-.033.187-.02.368-.056.545-.105v1.366c-.066.03-.15.06-.25.087-.102.028-.217.053-.345.075-.128.02-.263.038-.403.05-.14.01-.278.017-.412.017zm-1.907-9.073l1.567.65 1.567-.65v1.136l-1.558.65-1.577-.65V13.67zM96.7 15.878h1.465l1.934 2.952.338.705h.1v-3.657h1.56v6.782h-1.458l-1.96-2.997-.322-.687h-.1v3.684h-1.56v-6.782zM103.014 15.878h1.787v6.782h-1.786v-6.782zm.21-.55l.587-1.723h1.78l-1.128 1.815-1.238-.092zM109.08 22.77c-.323 0-.65-.03-.98-.087-.33-.058-.69-.152-1.08-.28V20.91c.11.055.237.106.384.15.147.047.296.086.45.12.152.034.305.062.457.083.154.02.294.032.422.032.6 0 .898-.21.898-.632 0-.116-.027-.21-.082-.285-.055-.073-.132-.134-.23-.183-.096-.05-.208-.09-.334-.124-.125-.032-.258-.067-.398-.105-.177-.048-.358-.116-.54-.2-.184-.087-.35-.21-.496-.368-.147-.16-.266-.37-.358-.632-.092-.263-.137-.598-.137-1.008 0-.617.206-1.096.618-1.44.413-.34.99-.512 1.737-.512.275 0 .55.02.83.064.277.042.563.11.856.2v1.42c-.116-.036-.243-.07-.38-.1-.138-.03-.277-.056-.417-.078-.142-.02-.276-.04-.404-.055s-.24-.023-.33-.023c-.483 0-.724.174-.724.522 0 .135.035.245.105.33.07.086.162.16.275.22.113.06.243.116.39.165.147.05.3.105.46.166.164.068.327.147.49.24.16.09.304.21.43.362.126.15.227.334.307.554.078.22.118.49.118.806 0 .336-.055.64-.165.908-.11.27-.266.496-.467.683-.202.185-.447.33-.733.43-.288.1-.612.15-.972.15zM113.69 20.332l-2.337-4.455h2.025l1.063 2.365.11.45h.093l.12-.45 1.07-2.365h1.98l-2.327 4.455v2.328h-1.796v-2.328zM119.785 22.77c-.324 0-.65-.03-.98-.087-.33-.058-.692-.152-1.082-.28V20.91c.11.055.238.106.385.15.146.047.296.086.45.12.152.034.305.062.458.083.152.02.293.032.42.032.6 0 .9-.21.9-.632 0-.116-.028-.21-.084-.285-.055-.073-.13-.134-.23-.183-.097-.05-.208-.09-.334-.124l-.4-.105c-.176-.048-.356-.116-.54-.2-.183-.087-.348-.21-.495-.368-.146-.16-.266-.37-.357-.632-.092-.263-.138-.598-.138-1.008 0-.617.206-1.096.62-1.44.41-.34.99-.512 1.735-.512.275 0 .552.02.83.064.278.042.564.11.857.2v1.42c-.116-.036-.243-.07-.38-.1-.138-.03-.277-.056-.417-.078-.14-.02-.275-.04-.403-.055s-.238-.023-.33-.023c-.483 0-.724.174-.724.522 0 .135.035.245.106.33.07.086.162.16.275.22.113.06.243.116.39.165.147.05.3.105.46.166.164.068.327.147.49.24.16.09.304.21.43.362.125.15.228.334.307.554.08.22.12.49.12.806 0 .336-.056.64-.166.908-.11.27-.266.496-.467.683-.2.185-.445.33-.732.43-.29.1-.613.15-.973.15zM123.918 17.4h-1.494v-1.522h4.784v1.52h-1.503v5.262h-1.787V17.4zM127.823 15.878h4.316v1.485h-2.53v1.164h2.245v1.485h-2.245v1.164h2.612v1.484h-4.4v-6.782zm1.53-.55l.587-1.723h1.778l-1.127 1.815-1.237-.092zM132.918 15.878h2.575l.862 2.942.192 1.192h.073l.192-1.192.87-2.942h2.576v6.782h-1.668v-4.674h-.055l-.294 1.2-.934 3.108h-1.475l-.915-3.107-.312-1.2h-.055v4.673h-1.63v-6.782zM52.49 30.885c.084.23.126.503.126.817 0 .25-.038.51-.114.774-.076.265-.174.488-.295.672l-.275-.063c.073-.194.132-.402.177-.625.043-.223.066-.433.066-.633 0-.136-.013-.276-.04-.42-.025-.144-.067-.292-.124-.444l.478-.078zm1.516 0c.084.23.125.503.125.817 0 .25-.037.51-.113.774-.076.265-.174.488-.295.672l-.275-.063c.073-.194.132-.402.177-.625.044-.223.067-.433.067-.633 0-.136-.012-.276-.04-.42-.025-.144-.067-.292-.124-.444l.48-.078zM55.16 26.274h3.033v.52h-2.46v2.097h2.2v.51h-2.2v2.168h2.53v.52H55.16v-5.814zM59.12 26.274h.573v5.295h1.964v.518H59.12v-5.814zM62.332 26.274h3.032v.52h-2.46v2.097h2.2v.51h-2.2v2.168h2.53v.52H62.33v-5.814zM66.29 26.274h.575v2.592h.66l1.752-2.592h.675l-1.767 2.624-.25.205v.04l.265.187 1.91 2.757h-.67l-1.885-2.695h-.69v2.695h-.575v-5.813zM71.688 26.8h-1.453v-.526h3.512v.526h-1.47v5.287h-.588V26.8zM76.182 29.91c-.09.01-.18.02-.27.024-.093.005-.188.008-.288.008-.094 0-.198 0-.31-.004-.112-.002-.216-.01-.31-.02v2.17h-.574v-5.775c.204-.042.407-.073.61-.094.2-.022.4-.032.6-.032.738 0 1.275.15 1.61.448.335.3.503.778.503 1.438 0 .46-.084.83-.25 1.107-.17.28-.43.48-.787.607l1.116 2.3h-.613L76.18 29.91zm-.503-.455c.523 0 .9-.11 1.134-.326.233-.218.35-.57.35-1.058 0-.482-.113-.832-.338-1.05-.225-.216-.59-.325-1.092-.325-.09 0-.196.006-.322.016s-.262.026-.41.047v2.647c.252.032.477.048.677.048zM80.478 32.165c-1.372 0-2.058-.992-2.058-2.977 0-1.01.17-1.762.507-2.255.338-.492.855-.738 1.55-.738.703 0 1.224.246 1.564.738.34.492.512 1.244.512 2.255 0 1.985-.69 2.977-2.074 2.977zm0-.518c.256 0 .48-.047.668-.14.188-.096.342-.242.46-.44.117-.2.204-.454.262-.763.058-.31.086-.68.086-1.116 0-.864-.118-1.494-.354-1.89-.236-.395-.61-.593-1.123-.593-.257 0-.477.047-.66.14-.183.095-.334.243-.452.445s-.206.46-.263.774c-.058.314-.086.69-.086 1.123 0 .435.027.806.083 1.116.054.31.14.563.258.762.118.2.27.345.455.44.187.094.41.142.665.142zM83.472 26.274h.542l2.498 4.132.338.66.047-.008v-4.784h.542v5.813h-.56l-2.474-4.11-.354-.682-.047.008v4.784h-.534v-5.813zM88.593 26.274h.574v5.813h-.574v-5.813zM92.48 32.165c-.832-.005-1.44-.245-1.82-.72-.383-.473-.574-1.226-.574-2.258 0-.534.046-.988.137-1.363.092-.375.233-.682.424-.923.19-.24.437-.415.738-.525.3-.11.66-.165 1.08-.165.257 0 .547.023.872.07v.503c-.105-.02-.228-.037-.37-.047-.14-.01-.28-.016-.415-.016-.34 0-.628.042-.864.126-.236.084-.427.223-.573.416-.147.194-.254.448-.322.762s-.102.702-.102 1.163c0 .445.037.823.107 1.135.07.312.18.566.326.762.146.196.335.34.565.428.23.09.508.134.833.134.09 0 .215-.005.374-.016.16-.01.308-.026.444-.047v.486c-.12.03-.247.054-.38.07-.135.018-.293.025-.477.025zM94.17 26.274h.575v2.592h.66l1.752-2.592h.676l-1.768 2.624-.252.205v.04l.267.188 1.91 2.758h-.67l-1.884-2.695h-.69v2.695h-.575v-5.814zM98.06 32.04l1.688-5.767h.825l1.705 5.766v.046h-.55l-.542-1.783h-2.042l-.534 1.783h-.55v-.047zm3-2.232l-.637-2.136-.236-.864h-.055l-.228.864-.636 2.136h1.792zm-1.147-3.927l.59-1.09h.604l-.74 1.123-.454-.032zM103.903 31.607l2.545-4.768v-.048h-2.482v-.52h3.166v.48l-2.545 4.777v.046h2.608v.51h-3.29v-.48zm.7-6.818l1.044.565 1.052-.566v.48l-1.053.565-1.045-.566v-.48zM107.47 32.04l1.69-5.767h.824l1.705 5.766v.046h-.55l-.543-1.783h-2.042l-.535 1.783h-.55v-.047zm3-2.232l-.636-2.136-.236-.864h-.055l-.228.864-.636 2.136h1.79zm-1.146-3.927l.59-1.09h.604l-.74 1.123-.454-.032zM112.325 26.274h.573v2.592h.66l1.752-2.592h.675l-1.768 2.624-.25.205v.04l.266.188 1.91 2.758h-.67l-1.885-2.695h-.69v2.695h-.574v-5.814zM118.263 32.165c-1.372 0-2.058-.992-2.058-2.977 0-1.01.17-1.762.507-2.255.338-.492.855-.738 1.55-.738.703 0 1.224.246 1.564.738.34.492.51 1.244.51 2.255 0 1.985-.69 2.977-2.073 2.977zm0-.518c.257 0 .48-.047.668-.14.19-.096.343-.242.46-.44.118-.2.206-.454.264-.763.058-.31.086-.68.086-1.116 0-.864-.118-1.494-.354-1.89-.236-.395-.61-.593-1.123-.593-.257 0-.477.047-.66.14-.183.095-.334.243-.452.445-.117.202-.205.46-.262.774-.058.314-.086.69-.086 1.123 0 .435.027.806.083 1.116.055.31.14.563.26.762.116.2.268.345.454.44.185.094.407.142.663.142zM120.62 26.274h.58l1.297 4.195.267 1.028h.047l.276-1.03 1.296-4.194h.566l-1.775 5.813h-.778l-1.775-5.813zM126.73 32.19c-.115 0-.24-.008-.372-.02-.133-.014-.268-.032-.404-.056-.137-.024-.27-.05-.397-.082-.128-.03-.245-.068-.35-.11l.055-.51c.073.036.167.07.283.1.115.032.237.06.365.083.128.024.258.044.39.06.13.015.25.023.36.023.372 0 .66-.092.86-.275.202-.183.303-.445.303-.786 0-.293-.097-.53-.29-.71-.194-.182-.495-.353-.904-.516-.226-.093-.423-.19-.59-.285-.168-.097-.306-.207-.416-.33-.11-.123-.193-.266-.247-.428-.055-.162-.083-.354-.083-.573 0-.24.04-.46.118-.656.08-.196.19-.364.338-.503.146-.14.325-.246.534-.322.21-.076.443-.114.7-.114.188 0 .38.013.577.04.197.025.41.067.64.124l-.038.503c-.236-.057-.45-.098-.64-.122-.192-.023-.36-.035-.507-.035-.346 0-.62.098-.825.295-.204.196-.306.46-.306.79 0 .14.022.264.067.368.045.105.115.2.21.287.094.086.213.17.357.247.144.08.316.157.515.236.236.1.44.2.613.306.173.104.315.222.428.352.112.13.195.28.247.448.053.168.08.362.08.582 0 .497-.148.886-.44 1.166-.296.28-.705.42-1.23.42zM129.22 26.274h.574v2.592h.66l1.752-2.592h.675l-1.767 2.624-.25.205v.04l.266.188 1.908 2.758h-.668l-1.886-2.695h-.69v2.695h-.574v-5.814zM133.11 32.04l1.69-5.767h.824l1.705 5.766v.046h-.55l-.543-1.783h-2.042l-.535 1.783h-.55v-.047zm3-2.232l-.636-2.136-.236-.864h-.055l-.228.864-.636 2.136h1.79zm-1.146-3.927l.59-1.09h.604l-.74 1.123-.454-.032zM137.564 27.978c-.09-.214-.134-.484-.134-.81 0-.125.01-.255.03-.388.022-.133.05-.263.088-.39.036-.124.08-.245.13-.36.05-.115.106-.22.17-.315l.274.063c-.074.2-.134.41-.18.628-.048.22-.07.43-.07.63 0 .27.054.56.164.863l-.472.078zm1.524 0c-.09-.214-.133-.484-.133-.81 0-.125.01-.255.03-.388.022-.133.05-.263.087-.39.037-.124.08-.245.13-.36.05-.115.106-.22.17-.315l.274.063c-.073.2-.134.41-.18.628-.048.22-.072.43-.072.63 0 .27.055.56.165.863l-.472.078z"/></svg>