<svg xmlns="http://www.w3.org/2000/svg" xmlns:xlink="http://www.w3.org/1999/xlink" viewBox="0 0 155 44.688"><path fill="#F1562C" d="M0 0h155v44.688H0z"/><circle fill="#FFF" cx="27.884" cy="22.344" r="18.556"/><defs><path id="a" d="M16.007 10.155h27.446v27.45H16.007z"/></defs><clipPath id="b"><use xlink:href="#a" overflow="visible"/></clipPath><path clip-path="url(#b)" d="M43.106 21.059l-4.489-4.489c-.449-.449-1.993-.449-1.993.486v10.277c0 .938 1.544.938 1.993.486l4.489-4.486c.452-.451.452-1.825 0-2.274zm0 0M29.724 10.155H16.003v20.582l10.291 6.86v-3.43h3.43a3.432 3.432 0 0 0 3.43-3.43V13.586a3.431 3.431 0 0 0-3.43-3.431zm-.001 20.582h-3.43V17.016l-5.145-3.43h8.576v17.151zm0 0"/><path d="M52.131 15.878h1.787v6.782h-1.787v-6.782zM54.835 15.878h1.466l1.934 2.952.339.705h.101v-3.657h1.558v6.782h-1.457l-1.961-2.997-.321-.687h-.101v3.684h-1.558v-6.782zM61.149 15.878h4.225v1.485h-2.438v1.347h2.154v1.485h-2.154v2.465h-1.787v-6.782zM68.701 22.751c-.984 0-1.714-.285-2.19-.857-.477-.572-.715-1.443-.715-2.617 0-1.179.239-2.056.715-2.63.477-.575 1.207-.862 2.19-.862 1.002 0 1.74.284 2.214.852.473.568.71 1.448.71 2.64 0 1.185-.239 2.06-.715 2.625-.477.567-1.213.849-2.209.849zm0-1.457c.208 0 .38-.033.518-.101a.765.765 0 0 0 .335-.334c.085-.156.147-.362.183-.619.037-.256.055-.577.055-.962a8.08 8.08 0 0 0-.05-.981 1.788 1.788 0 0 0-.179-.628.739.739 0 0 0-.339-.33 1.262 1.262 0 0 0-.523-.097 1.16 1.16 0 0 0-.509.101.743.743 0 0 0-.33.339 1.998 1.998 0 0 0-.179.628 7.035 7.035 0 0 0-.055.967c0 .379.018.697.055.953.037.256.096.464.179.623a.743.743 0 0 0 .33.339c.137.069.307.102.509.102zM74.695 20.415h-.587v2.245h-1.787v-6.736a7.43 7.43 0 0 1 .861-.105c.312-.021.636-.032.971-.032a6.69 6.69 0 0 1 1.434.133c.4.089.729.229.985.421.257.192.446.438.568.738.122.3.184.657.184 1.073 0 .947-.354 1.594-1.063 1.943l1.292 2.566h-1.842l-1.016-2.246zm-.211-1.366c.196 0 .359-.014.49-.042a.64.64 0 0 0 .312-.147.562.562 0 0 0 .161-.275c.03-.113.046-.258.046-.435s-.017-.325-.051-.445a.58.58 0 0 0-.169-.284.685.685 0 0 0-.325-.147 2.744 2.744 0 0 0-.679-.033c-.076.007-.13.013-.16.019v1.769a3.927 3.927 0 0 0 .375.02zM78.012 15.878h2.575l.862 2.942.193 1.192h.073l.192-1.192.871-2.942h2.575v6.782h-1.668v-4.674h-.055l-.293 1.201-.935 3.107h-1.475l-.917-3.107-.312-1.201h-.055v4.674h-1.631v-6.782zM85.774 22.596l1.622-6.718h2.731l1.622 6.718v.064h-1.677l-.348-1.457H87.79l-.339 1.457h-1.677v-.064zm3.621-2.814l-.357-1.613-.22-.99h-.11l-.22.99-.367 1.613h1.274zM94.61 22.742c-.911 0-1.602-.283-2.076-.848s-.711-1.44-.711-2.625c0-1.18.24-2.054.72-2.621.48-.569 1.166-.853 2.058-.853.452 0 .926.055 1.42.165v1.402a7.196 7.196 0 0 0-1.145-.109c-.226 0-.417.026-.573.078a.702.702 0 0 0-.376.302c-.095.15-.164.356-.206.618a6.607 6.607 0 0 0-.064 1.027c0 .421.022.764.064 1.027.043.263.111.466.206.609a.71.71 0 0 0 .376.294c.156.052.347.078.573.078.214 0 .414-.011.6-.033a3.5 3.5 0 0 0 .545-.105v1.366a1.69 1.69 0 0 1-.252.087 3.896 3.896 0 0 1-.344.074 5.28 5.28 0 0 1-.815.067zm-1.907-9.073l1.567.651 1.567-.651v1.137l-1.558.651-1.576-.651v-1.137zM96.699 15.878h1.466l1.934 2.952.339.705h.101v-3.657h1.558v6.782h-1.457l-1.961-2.997-.321-.687h-.101v3.684h-1.558v-6.782zM103.014 15.878h1.787v6.782h-1.787v-6.782zm.21-.55l.587-1.723h1.778l-1.127 1.815-1.238-.092zM109.081 22.77c-.324 0-.651-.029-.981-.087a8.045 8.045 0 0 1-1.081-.279V20.91c.11.055.238.106.385.151a5.915 5.915 0 0 0 .907.202c.153.021.293.032.421.032.599 0 .898-.211.898-.632a.465.465 0 0 0-.082-.285.644.644 0 0 0-.229-.183 1.763 1.763 0 0 0-.335-.124l-.398-.106a3.41 3.41 0 0 1-.541-.201 1.595 1.595 0 0 1-.495-.367 1.785 1.785 0 0 1-.358-.632c-.092-.263-.137-.598-.137-1.008 0-.617.206-1.096.618-1.439.413-.342.991-.513 1.737-.513.275 0 .551.021.829.064.278.043.564.11.857.201v1.42a4.613 4.613 0 0 0-.38-.1 6.512 6.512 0 0 0-.417-.078c-.141-.021-.275-.04-.403-.055a2.924 2.924 0 0 0-.33-.023c-.483 0-.724.174-.724.522 0 .135.035.245.105.33.07.086.162.159.275.22.113.061.243.116.39.165.147.049.3.104.459.165.165.068.328.147.49.239.162.092.305.212.431.363.126.15.227.334.307.554a2.4 2.4 0 0 1 .119.806c0 .336-.055.639-.165.908-.11.269-.266.496-.467.683-.202.186-.447.33-.733.43-.288.1-.612.151-.972.151zM113.69 20.332l-2.337-4.455h2.025l1.063 2.365.11.449h.092l.119-.449 1.072-2.365h1.98l-2.328 4.455v2.328h-1.796v-2.328zM119.785 22.77c-.324 0-.651-.029-.981-.087a8.007 8.007 0 0 1-1.081-.279V20.91c.11.055.238.106.385.151a5.793 5.793 0 0 0 .908.202c.152.021.293.032.421.032.599 0 .898-.211.898-.632a.459.459 0 0 0-.083-.285.635.635 0 0 0-.229-.183 1.79 1.79 0 0 0-.335-.124l-.399-.106a3.447 3.447 0 0 1-.541-.201 1.595 1.595 0 0 1-.495-.367 1.784 1.784 0 0 1-.357-.632c-.092-.263-.138-.598-.138-1.008 0-.617.206-1.096.619-1.439.412-.342.991-.513 1.736-.513.275 0 .552.021.83.064.278.043.564.11.857.201v1.42a4.613 4.613 0 0 0-.38-.1 6.512 6.512 0 0 0-.417-.078c-.141-.021-.275-.04-.403-.055a2.91 2.91 0 0 0-.33-.023c-.483 0-.724.174-.724.522 0 .135.035.245.106.33.07.086.162.159.275.22.113.061.243.116.39.165.147.049.299.104.459.165.165.068.328.147.49.239.162.092.305.212.431.363.125.15.228.334.307.554a2.4 2.4 0 0 1 .119.806c0 .336-.055.639-.165.908-.11.269-.266.496-.467.683-.202.186-.446.33-.733.43-.289.1-.613.151-.973.151zM123.918 17.399h-1.494v-1.521h4.784v1.521h-1.503v5.261h-1.787v-5.261zM127.823 15.878h4.316v1.485h-2.529v1.164h2.245v1.485h-2.245v1.164h2.612v1.484h-4.399v-6.782zm1.53-.55l.587-1.723h1.778l-1.127 1.815-1.238-.092zM132.918 15.878h2.575l.862 2.942.192 1.192h.073l.192-1.192.871-2.942h2.575v6.782h-1.668v-4.674h-.055l-.294 1.201-.935 3.107h-1.475l-.916-3.107-.312-1.201h-.055v4.674h-1.631v-6.782zM52.49 30.885c.084.231.126.503.126.817 0 .251-.038.509-.114.774a2.44 2.44 0 0 1-.295.672l-.275-.063c.073-.194.132-.402.177-.625.044-.223.067-.433.067-.633a2.362 2.362 0 0 0-.164-.864l.478-.078zm1.516 0c.084.231.125.503.125.817 0 .251-.038.509-.114.774a2.44 2.44 0 0 1-.295.672l-.275-.063c.073-.194.132-.402.177-.625.044-.223.067-.433.067-.633 0-.136-.013-.276-.04-.42a2.566 2.566 0 0 0-.125-.444l.48-.078zM55.161 26.274h3.032v.519h-2.459v2.098h2.2v.509h-2.2v2.168h2.529v.519H55.16v-5.813zM59.12 26.274h.573v5.295h1.964v.519H59.12v-5.814zM62.332 26.274h3.032v.519h-2.459v2.098h2.2v.509h-2.2v2.168h2.529v.519h-3.103v-5.813zM66.291 26.274h.574v2.592h.66l1.752-2.592h.675l-1.767 2.624-.251.205v.039l.266.188 1.909 2.757h-.668l-1.886-2.695h-.691v2.695h-.574v-5.813zM71.688 26.8h-1.453v-.526h3.512v.526h-1.469v5.287h-.589V26.8zM76.182 29.91a5.262 5.262 0 0 1-.558.032c-.094 0-.198-.001-.31-.004a3.534 3.534 0 0 1-.31-.019v2.168h-.574v-5.774a6.193 6.193 0 0 1 1.21-.125c.738 0 1.275.149 1.61.448.335.299.503.778.503 1.438 0 .461-.084.83-.251 1.107-.168.278-.43.48-.786.606l1.116 2.301h-.613l-1.037-2.178zm-.503-.455c.524 0 .902-.109 1.135-.326.233-.217.35-.57.35-1.057 0-.482-.113-.832-.338-1.049-.225-.217-.589-.326-1.092-.326a4.22 4.22 0 0 0-.322.016 7.485 7.485 0 0 0-.409.047v2.647c.251.032.476.048.676.048zM80.478 32.165c-1.372 0-2.058-.992-2.058-2.977 0-1.011.169-1.762.507-2.255.338-.492.855-.738 1.551-.738.702 0 1.223.246 1.563.738.34.492.511 1.244.511 2.255 0 1.985-.691 2.977-2.074 2.977zm0-.518c.256 0 .479-.047.668-.141.188-.095.342-.241.459-.44.118-.199.205-.453.263-.762.058-.31.086-.681.086-1.116 0-.864-.118-1.494-.354-1.89-.236-.395-.61-.593-1.123-.593a1.43 1.43 0 0 0-.66.141 1.113 1.113 0 0 0-.452.444c-.118.202-.206.46-.263.774a6.287 6.287 0 0 0-.086 1.123c0 .435.027.806.083 1.116.055.309.141.563.259.762.118.199.269.345.455.44.187.094.409.142.665.142zM83.472 26.274h.542l2.498 4.132.338.66.047-.008v-4.784h.542v5.813h-.558l-2.475-4.109-.354-.683-.047.008v4.784h-.534v-5.813zM88.593 26.274h.574v5.813h-.574v-5.813zM92.481 32.165c-.833-.005-1.44-.245-1.822-.719-.382-.474-.573-1.227-.573-2.259 0-.534.046-.988.137-1.363.092-.375.233-.682.424-.923.191-.241.437-.416.738-.526.301-.11.661-.165 1.08-.165.257 0 .547.023.872.07v.503a2.972 2.972 0 0 0-.369-.047 5.896 5.896 0 0 0-.416-.016c-.341 0-.628.042-.864.126a1.211 1.211 0 0 0-.573.416c-.147.194-.254.448-.322.762a5.607 5.607 0 0 0-.102 1.163c0 .445.036.823.106 1.135.071.312.179.566.326.762.146.196.335.34.565.428.23.089.508.134.833.134a5.7 5.7 0 0 0 .373-.016c.16-.01.308-.026.444-.047v.486a2.767 2.767 0 0 1-.381.071 3.659 3.659 0 0 1-.476.025zM94.171 26.274h.574v2.592h.66l1.752-2.592h.676l-1.768 2.624-.252.205v.039l.267.189 1.909 2.757h-.668l-1.885-2.695h-.691v2.695h-.574v-5.814zM98.059 32.039l1.689-5.766h.825l1.705 5.766v.047h-.55l-.542-1.783h-2.042l-.534 1.783h-.55v-.047zm3.001-2.231l-.637-2.136-.236-.864h-.055l-.228.864-.636 2.136h1.792zm-1.147-3.927l.589-1.092h.605l-.739 1.124-.455-.032zM103.903 31.607l2.545-4.768v-.047h-2.482v-.519h3.166v.479l-2.545 4.777v.047h2.608v.511h-3.291v-.48zm.699-6.818l1.045.566 1.052-.566v.48l-1.052.566-1.045-.566v-.48zM107.47 32.039l1.689-5.766h.825l1.705 5.766v.047h-.55l-.542-1.783h-2.042l-.535 1.783h-.55v-.047zm3.001-2.231l-.637-2.136-.236-.864h-.055l-.228.864-.636 2.136h1.792zm-1.147-3.927l.589-1.092h.605l-.739 1.124-.455-.032zM112.325 26.274h.573v2.592h.66l1.752-2.592h.675l-1.768 2.624-.251.205v.039l.267.189 1.909 2.757h-.668l-1.886-2.695h-.691v2.695h-.573v-5.814zM118.263 32.165c-1.372 0-2.058-.992-2.058-2.977 0-1.011.169-1.762.507-2.255.338-.492.855-.738 1.551-.738.702 0 1.223.246 1.563.738.34.492.511 1.244.511 2.255 0 1.985-.691 2.977-2.074 2.977zm0-.518c.257 0 .479-.047.668-.141.189-.095.342-.241.459-.44.118-.199.206-.453.264-.762.058-.31.086-.681.086-1.116 0-.864-.118-1.494-.354-1.89-.236-.395-.61-.593-1.123-.593a1.43 1.43 0 0 0-.66.141 1.113 1.113 0 0 0-.452.444c-.118.202-.206.46-.263.774a6.287 6.287 0 0 0-.086 1.123c0 .435.027.806.083 1.116.055.309.141.563.259.762.117.199.269.345.455.44.186.094.408.142.664.142zM120.62 26.274h.581l1.296 4.195.267 1.029h.047l.275-1.029 1.296-4.195h.566l-1.775 5.813h-.778l-1.775-5.813zM126.731 32.189a3.85 3.85 0 0 1-.373-.02 6.314 6.314 0 0 1-.801-.137 2.58 2.58 0 0 1-.35-.11l.055-.511c.073.037.167.071.283.102a5.522 5.522 0 0 0 .754.141c.131.016.252.024.361.024.372 0 .659-.092.861-.275.201-.183.302-.445.302-.786a.93.93 0 0 0-.29-.711c-.194-.181-.495-.352-.904-.515a5.254 5.254 0 0 1-.589-.286 1.674 1.674 0 0 1-.416-.33 1.21 1.21 0 0 1-.247-.428 1.79 1.79 0 0 1-.083-.573c0-.241.039-.46.118-.656.079-.196.191-.364.338-.503.146-.139.325-.246.534-.322.209-.076.443-.114.699-.114.189 0 .381.014.578.04.196.026.41.068.64.125l-.039.503a5.883 5.883 0 0 0-.64-.122 4.335 4.335 0 0 0-.507-.035c-.346 0-.621.098-.825.295-.204.196-.306.46-.306.789a.81.81 0 0 0 .276.656c.094.086.213.169.357.247.144.079.316.157.515.236.236.099.44.201.613.306.173.105.315.223.428.353.112.131.195.28.247.448.053.168.079.362.079.582 0 .497-.147.886-.44 1.166-.295.281-.704.421-1.228.421zM129.221 26.274h.573v2.592h.66l1.752-2.592h.675l-1.768 2.624-.251.205v.039l.267.189 1.909 2.757h-.668l-1.886-2.695h-.691v2.695h-.573v-5.814zM133.11 32.039l1.689-5.766h.825l1.705 5.766v.047h-.55l-.542-1.783h-2.042l-.535 1.783h-.55v-.047zm3.001-2.231l-.637-2.136-.236-.864h-.055l-.228.864-.636 2.136h1.792zm-1.147-3.927l.589-1.092h.605l-.739 1.124-.455-.032zM137.564 27.978c-.089-.214-.134-.484-.134-.809 0-.126.011-.256.031-.389a3.093 3.093 0 0 1 .217-.75c.05-.115.106-.22.169-.315l.275.063a4.528 4.528 0 0 0-.181.628c-.047.22-.07.43-.07.629 0 .272.055.56.165.864l-.472.079zm1.524 0c-.089-.214-.133-.484-.133-.809 0-.126.01-.256.031-.389a3.145 3.145 0 0 1 .216-.75c.05-.115.106-.22.169-.315l.275.063a4.67 4.67 0 0 0-.181.628c-.047.22-.071.43-.071.629 0 .272.055.56.165.864l-.471.079z"/></svg>