<?xml version="1.0" encoding="UTF-8"?><!DOCTYPE svg PUBLIC "-//W3C//DTD SVG 1.1//EN" "http://www.w3.org/Graphics/SVG/1.1/DTD/svg11.dtd"><svg xmlns="http://www.w3.org/2000/svg"><symbol id="icon-books" viewBox="0 0 20 20"><path fill="currentColor" d="M0 16.291a2.279 2.279 0 0 0 2.276 2.276h16.459v-1.012h-1.054v-2.529h1.054v-.443H20v-1.012h-.759v-2.529H20V10.03h-.822v-.863l-1.249-2.339h1.312v-1.36L15.94 1.433H4.295L1.292 6.165a2.263 2.263 0 0 0-.849 1.759 2.278 2.278 0 0 0 2.254 2.274 2.277 2.277 0 0 0-1.432 2.11c0 .694.319 1.309.811 1.727A2.271 2.271 0 0 0 0 16.291zm1.454-8.367c0-.472.262-.879.646-1.096h15.076v2.361H2.719a1.266 1.266 0 0 1-1.265-1.265zm2.087 3.119H18.23v2.529H3.541a1.266 1.266 0 0 1-1.265-1.264c0-.698.567-1.265 1.265-1.265zm-1.265 3.983H16.67v2.529H2.276a1.266 1.266 0 0 1 0-2.529zm0 0"/></symbol><symbol id="icon-building" viewBox="0 0 25.602 25.414"><title>Adresa</title><g fill="currentColor"><path d="M12 6.859l5.203-5.598 5.445 6.86 1.094.105L17.566 0 8.777 2.168 3.336 7.921 12 6.859zm0 0"/><path d="M21.957 14.894V8.117l-4.785-6.078-4.926 5.3-8.457 1.036v6.515L0 18.043l2.25.031v6.269l9.848 1.071 6.015-.614v-6.183l3.547-.067v5.891l1.77-.18v-6.05h2.172l-3.645-3.317zM4.801 9.879l2.426-.243v2.77l-2.426.152V9.879zm2.508 11.746l-2.434-.141V18.8l2.434.051v2.774zm0-4.5l-2.434.004v-2.684l2.434-.09v2.77zm1.074-7.633l2.672-.266v2.91l-2.672.168V9.492zm2.762 12.324l-2.68-.152v-2.817l2.68.059v2.91zm0-4.727l-2.68.004v-2.812l2.68-.102v2.91zm2.187-7.894l2.898.293v2.836l-2.898-.184V9.195zm.098 4.867l2.89.113v2.832L13.43 17v-2.938zm3.031 7.543l-2.879.164v-2.933l2.879-.059v2.828zm.543-14.469c-.547-.074-.996-.804-.996-1.636 0-.829.449-1.422.996-1.329.539.09.973.821.973 1.629 0 .809-.434 1.407-.973 1.336zm.894 2.539l2.579.258v2.68l-2.579-.164V9.675zm2.661 7.364l-2.575-.008v-2.77l2.575.102v2.676zm0 0"/></g></symbol><symbol id="icon-documents" viewBox="0 0 20 20"><path fill="currentColor" d="M19.755 7.361a1.112 1.112 0 0 0-.866-.417h-1.111a1.11 1.11 0 0 0-1.111-1.111h-1.111V4.722a1.11 1.11 0 0 0-1.111-1.111h-.556V1.389a.557.557 0 0 0-.556-.556H2.222a.555.555 0 0 0-.556.556v2.222h-.555A1.11 1.11 0 0 0 0 4.722v13.333a1.11 1.11 0 0 0 1.111 1.111h15.555c.521 0 .972-.362 1.085-.87l2.222-10a1.108 1.108 0 0 0-.218-.935zM1.667 18.055h-.556V4.722h.556v13.333zM13.333 5.833a1.11 1.11 0 0 0-1.111 1.111H5.555c-.521 0-.972.362-1.085.87 0 0-2.248 10.16-2.248 10.241V1.389h11.111v4.444zm1.111 0h-.556V4.722h.556v1.111zm-3.407-1.981H4.408a.557.557 0 0 1 0-1.112h6.629a.557.557 0 0 1 0 1.112zm0 2.259H4.408a.557.557 0 0 1 0-1.111h6.629a.557.557 0 0 1 0 1.111zm0 0"/></symbol><symbol id="icon-graduation" viewBox="0 0 22.023 15.563"><path fill="currentColor" d="M18.766 9.782l-.571-3.286-6.968 4.157-6.836-4.157-.567 3.547c0-.004.008-.007.012-.015a.807.807 0 0 0-.125.418c0 1.254 5.262 5.117 7.012 5.117 1.754 0 8.156-3.859 8.156-5.117 0-.133-.043-.266-.113-.664zm-7.485.136L.57 3.426 11.309 0l10.714 3.375-10.742 6.543zM.641 4L0 11.114l.641 2.132.597-2.132L.641 4zm0 0"/></symbol><symbol id="icon-group" viewBox="0 0 70.855 64.945"><path fill="currentColor" d="M19.445 9.082C19.445 4.066 23.512 0 28.531 0a9.082 9.082 0 0 1 9.082 9.082 9.082 9.082 0 0 1-9.082 9.082c-5.019 0-9.086-4.066-9.086-9.082zm13.45 15.27a9.82 9.82 0 0 1 1.867-5.321c-.77-.16-1.563-.246-2.379-.246h-7.707c-.813 0-1.606.086-2.371.242a9.852 9.852 0 0 1 1.875 5.731 9.853 9.853 0 0 1 4.769-1.223c1.403 0 2.735.293 3.946.817zm1.539.816c2.636 1.656 4.488 4.453 4.824 7.703 1.074.5 2.269.793 3.535.793 4.621 0 8.367-3.75 8.367-8.371s-3.746-8.367-8.367-8.367c-4.578 0-8.293 3.679-8.359 8.242zm-5.485 17.133a8.367 8.367 0 0 0 8.367-8.367 8.367 8.367 0 0 0-8.367-8.368c-4.621 0-8.371 3.746-8.371 8.368 0 4.621 3.75 8.367 8.371 8.367zm3.551.57h-7.102c-5.906 0-10.714 4.809-10.714 10.715v8.687l.023.133.598.188c5.636 1.761 10.535 2.351 14.566 2.351 7.875 0 12.441-2.246 12.723-2.39l.558-.282h.059v-8.687c0-5.906-4.805-10.715-10.711-10.715zm13.844-8.637h-7.047a10.297 10.297 0 0 1-3.18 7.184c5.25 1.562 9.09 6.43 9.09 12.184v2.675c6.957-.257 10.969-2.226 11.231-2.359l.562-.285h.059v-8.688c0-5.906-4.805-10.711-10.715-10.711zm1.886-17.488c2.637 1.656 4.489 4.453 4.825 7.703a8.294 8.294 0 0 0 3.535.793 8.367 8.367 0 1 0 0-16.734 8.362 8.362 0 0 0-8.36 8.238zm11.911 9.066h-7.047a10.301 10.301 0 0 1-3.18 7.184c5.25 1.563 9.09 6.434 9.09 12.184v2.675c6.957-.253 10.969-2.226 11.23-2.359l.559-.281h.062v-8.688c0-5.906-4.808-10.715-10.714-10.715zm-45.875 7.852a8.34 8.34 0 0 0 4.453-1.293 10.349 10.349 0 0 1 3.89-6.605c.008-.157.024-.313.024-.473a8.368 8.368 0 0 0-16.735 0 8.369 8.369 0 0 0 8.368 8.371zm7.515 7.754a10.316 10.316 0 0 1-3.179-7.145c-.262-.019-.52-.039-.79-.039h-7.097C4.805 34.234 0 39.039 0 44.949v8.684l.023.137.598.187c4.52 1.41 8.559 2.063 12.067 2.266v-2.621c0-5.754 3.839-10.625 9.093-12.184zm0 0"/></symbol><symbol id="icon-home" viewBox="0 0 20 20"><path fill="currentColor" d="M19.749 9.766a.954.954 0 0 0-.078-1.366L10.734.58a1.118 1.118 0 0 0-1.455.015L.312 8.819a.947.947 0 0 0-.044 1.362l.224.234c.374.389.976.435 1.346.105l.671-.601v8.787c0 .539.437.976.976.976H6.98c.54 0 .976-.437.976-.976v-6.149h4.458v6.149c-.007.539.378.974.918.974h3.704c.54 0 .976-.435.976-.974v-8.664l.414.363c.228.199.707.04 1.069-.359l.254-.28zm0 0"/></symbol><symbol id="icon-info" viewBox="0 0 20 20"><path fill="currentColor" d="M9.997 0C4.477 0 0 4.477 0 9.997 0 15.519 4.477 20 9.997 20 15.519 20 20 15.519 20 9.997 20 4.477 15.519 0 9.997 0zm2.084 15.499a37.28 37.28 0 0 1-1.232.462 3.2 3.2 0 0 1-1.067.162c-.624 0-1.111-.153-1.455-.459a1.465 1.465 0 0 1-.516-1.157c0-.182.013-.367.037-.558a6.46 6.46 0 0 1 .124-.641l.645-2.277c.057-.219.107-.425.144-.616.039-.199.059-.375.059-.537 0-.289-.061-.492-.182-.607-.12-.115-.347-.169-.686-.169-.165 0-.339.024-.513.074a8.565 8.565 0 0 0-.445.148l.169-.698c.421-.174.826-.318 1.21-.442a3.532 3.532 0 0 1 1.092-.186c.619 0 1.095.152 1.429.451.334.297.505.686.505 1.165 0 .099-.013.273-.034.521a3.573 3.573 0 0 1-.128.687l-.64 2.268a7.227 7.227 0 0 0-.145.624 3.303 3.303 0 0 0-.061.529c0 .302.07.509.202.616.137.112.368.165.703.165.157 0 .331-.029.529-.082a3.08 3.08 0 0 0 .43-.144l-.174.701zm-.111-9.208a1.55 1.55 0 0 1-1.083.417c-.417 0-.781-.141-1.082-.417a1.334 1.334 0 0 1-.452-1.012c0-.394.153-.732.451-1.014a1.557 1.557 0 0 1 1.082-.417c.422 0 .782.141 1.083.417.297.281.446.62.446 1.014a1.33 1.33 0 0 1-.445 1.012zm0 0"/></symbol><symbol id="icon-letter" viewBox="0 0 22.164 18.254"><title>E-mail</title><g fill="currentColor"><path d="M19.43 7.449l-8.348 5.953-8.348-5.953L0 5.5v12.754h22.164V5.5L19.43 7.449zm0 0"/><path d="M2.355 6.648l8.348 5.95a.647.647 0 0 0 .762 0l8.347-5.95a.662.662 0 0 0 .274-.535V.656A.655.655 0 0 0 19.43 0H2.734a.655.655 0 0 0-.656.656v5.457c0 .215.106.414.277.535zm1.036-5.336h15.382v4.461l-7.691 5.485-7.691-5.485V1.312zm0 0"/><path d="M5.988 4.121h9.774a.713.713 0 1 0 0-1.426H5.988a.713.713 0 1 0 0 1.426zm0 0M16.477 5.887a.715.715 0 0 0-.715-.711H5.988a.712.712 0 1 0 0 1.426h9.774a.716.716 0 0 0 .715-.715zm0 0"/></g></symbol><symbol id="icon-logo" viewBox="0 0 214.423 122.182"><title>Logo</title><g fill="#EE7D00"><path d="M40.672 22.528c5.624-.198 10.01-5.4 9.795-11.621C50.252 4.687 45.518-.194 39.896.006c-5.626.199-10.01 5.4-9.796 11.621.215 6.221 4.948 11.102 10.572 10.901M108.623 30.13c4.963-.174 8.836-4.517 8.656-9.703-.182-5.186-4.35-9.247-9.311-9.073-4.963.172-8.84 4.514-8.659 9.701.183 5.185 4.353 9.248 9.314 9.075M91.403 32.599c4.432-2.06 5.932-7.47 3.352-12.086-2.579-4.615-8.26-6.687-12.693-4.627-4.429 2.06-5.93 7.469-3.35 12.085 2.581 4.615 8.261 6.687 12.691 4.628M124.813 32.903c4.564 1.746 10.09-.716 12.34-5.5 2.252-4.785.379-10.078-4.186-11.824-4.563-1.743-10.088.72-12.338 5.503-2.252 4.784-.377 10.077 4.184 11.821"/><path d="M139.952 42.685c-20.267-12.143-47.824-12.3-68.348-.143-8.478-10.203-21.667-17.88-36.47-17.339-1.96.071-3.544 1.595-3.48 3.366.128 3.564.256 4.325.383 7.889l.043 1.211c-3.256.436-14.867 2.639-20.332 12.344a3.338 3.338 0 0 0-.349 2.371l.915 4.068C5.036 58.942.604 67.042.394 67.432a3.33 3.33 0 0 0 .251 3.541c.015.037.018.078.034.115l19.77 48.994a3.352 3.352 0 0 0 3.117 2.1c.719 0 1.428-.23 2.016-.67 15.628-11.688 37.521-15.303 43.384-16.09.296-.01.597-.047.9-.115.363-.045.581-.066.604-.068a3.357 3.357 0 0 0 2.683-1.854c2.799-3.145-1.643-7.428-4.699-10.137-7.293-6.459-17.494-9.031-27.515-9.471-.654-18.24-1.309-33.682-1.963-51.924 11.669 1.435 22.462 8.649 28.711 16.913 1.038 1.376 3.343 2.083 4.962.999 18.859-12.627 44.618-12.889 63.874-1.354 3.864 2.319 7.249-3.436 3.429-5.726zM25.106 113.674L7.166 69.219c1.35-1.99 3.794-4.883 6.636-6.152l9.314 41.426a3.355 3.355 0 0 0 1.938 2.34c.982.426 2.11.357 3.037-.182.111-.067 8.372-4.754 23.077-4.354-8.058 2.271-17.563 5.844-26.062 11.377zM60.975 96.07l.084.436c-15.554-2.43-26.694.414-32.286 2.521L18.256 52.25c3.872-5.626 11.23-7.365 14.066-7.842.512 14.221 1.021 28.441 1.531 42.664.066 1.811 1.751 3.133 3.714 3.121 8.284-.041 16.679 1.393 23.408 5.877z"/></g><g fill="#1D1D1B"><path d="M80.12 57.105h3.235l3.051 10.957.682 3.469h.279l.729-3.469 3.028-10.957h3.163l-4.783 17.358h-4.527zM101.561 74.702c-2.316 0-4.035-.732-5.161-2.196-1.127-1.462-1.691-3.693-1.691-6.697 0-3.021.565-5.263 1.691-6.732 1.126-1.471 2.844-2.205 5.161-2.205 2.331 0 4.061.734 5.197 2.205 1.131 1.47 1.698 3.712 1.698 6.732 0 3.018-.563 5.254-1.689 6.71-1.125 1.455-2.86 2.183-5.206 2.183m0-2.747c.642 0 1.185-.108 1.63-.33.445-.217.811-.571 1.092-1.066.28-.493.485-1.126.607-1.9.128-.773.189-1.724.189-2.85 0-1.126-.062-2.085-.189-2.874-.122-.789-.327-1.43-.607-1.925-.281-.492-.646-.851-1.092-1.077-.445-.227-.988-.343-1.63-.343-.628 0-1.161.116-1.606.343-.447.227-.81.585-1.091 1.077-.282.495-.487 1.136-.612 1.925-.122.789-.187 1.748-.187 2.874 0 1.11.064 2.057.187 2.839.125.784.33 1.418.612 1.911.281.495.64.85 1.079 1.066.436.222.976.33 1.618.33M114.884 74.746c-.766 0-1.57-.069-2.414-.211a15 15 0 0 1-2.534-.656l.069-2.768c.25.123.553.238.914.338.361.104.736.197 1.125.283.392.087.784.151 1.174.2.393.045.752.069 1.082.069.936 0 1.645-.2 2.121-.598.477-.398.717-.975.717-1.726 0-.358-.071-.667-.211-.926a2.085 2.085 0 0 0-.623-.681 4.928 4.928 0 0 0-.973-.526 33.6 33.6 0 0 0-1.267-.493 13.01 13.01 0 0 1-1.562-.681 4.523 4.523 0 0 1-1.255-.962c-.362-.391-.642-.876-.845-1.455-.202-.578-.305-1.305-.305-2.183 0-.75.127-1.431.388-2.04a4.224 4.224 0 0 1 1.101-1.549c.477-.423 1.063-.744 1.749-.974.687-.225 1.47-.339 2.345-.339a13.15 13.15 0 0 1 4.012.61l-.046 2.653a16.912 16.912 0 0 0-1.984-.412 11.805 11.805 0 0 0-1.698-.153c-.83 0-1.462.191-1.899.575-.438.383-.657.927-.657 1.629 0 .377.077.699.234.964.154.264.375.499.666.703.293.203.637.392 1.033.562.4.174.84.353 1.325.538.565.222 1.075.468 1.537.74.46.274.858.607 1.187.997.328.391.582.853.762 1.384.18.532.27 1.173.27 1.925 0 .797-.129 1.517-.385 2.156a4.489 4.489 0 0 1-1.104 1.632 4.803 4.803 0 0 1-1.735 1.02c-.682.238-1.453.355-2.314.355m-3.096-22.754l3.613 1.688 3.611-1.688v2.253l-3.611 1.688-3.613-1.688v-2.253zM122.393 57.223a21.531 21.531 0 0 1 2.109-.271c.706-.054 1.4-.08 2.09-.08 2.548 0 4.4.484 5.558 1.453 1.159.969 1.738 2.527 1.738 4.669 0 2.113-.572 3.648-1.715 4.61-1.142.963-2.963 1.443-5.464 1.443h-1.034v5.416h-3.282v-17.24zm4.714 9.173c.623 0 1.157-.061 1.596-.178.438-.116.787-.313 1.055-.586.268-.272.463-.624.588-1.055.125-.43.188-.959.188-1.584 0-1.233-.254-2.115-.764-2.639-.508-.524-1.395-.786-2.662-.786-.217 0-.46.017-.726.047-.267.032-.501.064-.706.095v6.593c.221.03.459.054.717.069.257.015.497.024.714.024M140.033 74.746c-.767 0-1.57-.069-2.414-.211a14.97 14.97 0 0 1-2.535-.657l.072-2.767c.248.123.553.238.912.337.36.105.737.198 1.127.284.391.087.78.151 1.176.2.388.045.748.068 1.076.068.938 0 1.648-.199 2.123-.597.475-.398.717-.975.717-1.726a1.91 1.91 0 0 0-.213-.926 2.06 2.06 0 0 0-.622-.681 4.947 4.947 0 0 0-.972-.526 31.208 31.208 0 0 0-1.268-.493 12.928 12.928 0 0 1-1.56-.681 4.552 4.552 0 0 1-1.255-.962c-.359-.391-.642-.876-.847-1.455-.201-.579-.303-1.305-.303-2.183 0-.751.13-1.431.386-2.041a4.278 4.278 0 0 1 1.102-1.548c.477-.423 1.061-.744 1.748-.974.69-.225 1.469-.339 2.347-.339.657 0 1.314.046 1.972.141.658.094 1.336.25 2.038.469l-.044 2.653a17.084 17.084 0 0 0-1.984-.412 11.806 11.806 0 0 0-1.699-.153c-.83 0-1.461.191-1.9.575-.438.383-.656.927-.656 1.629 0 .377.077.699.234.964.154.264.376.499.667.703.29.203.634.392 1.034.562.4.174.84.353 1.324.538.563.222 1.075.468 1.539.74.461.273.855.607 1.182.997.328.391.584.853.762 1.384.182.532.273 1.173.273 1.925 0 .797-.131 1.517-.389 2.156a4.489 4.489 0 0 1-1.104 1.632 4.798 4.798 0 0 1-1.734 1.021c-.68.237-1.452.354-2.312.354M154.132 74.582c-1.017 0-1.83-.333-2.439-.996-.611-.666-.916-1.545-.916-2.641 0-2.408 1.504-3.721 4.505-3.939l2.157-.142v-.398c0-.483-.029-.885-.094-1.197-.06-.312-.172-.563-.341-.751a1.262 1.262 0 0 0-.667-.386c-.282-.072-.635-.105-1.056-.105-.171 0-.402.01-.692.033a71.22 71.22 0 0 0-.916.084c-.32.032-.633.065-.936.105a7.54 7.54 0 0 0-.764.13l-.213-2.349c.674-.123 1.36-.225 2.055-.303a17.608 17.608 0 0 1 1.957-.117c1.705 0 2.945.316 3.719.949.775.632 1.16 1.653 1.16 3.061v8.843h-2.648l-.259-1.524h-.188a5.446 5.446 0 0 1-1.501 1.162 3.962 3.962 0 0 1-1.923.481m1.195-2.369c.346 0 .709-.105 1.092-.317.383-.21.723-.417 1.02-.624v-2.438l-1.453.143c-.737.077-1.255.245-1.561.504-.306.258-.458.654-.458 1.183 0 .501.119.885.352 1.151.235.265.569.398 1.008.398M171.61 74.746c-.767 0-1.571-.069-2.416-.211a15.079 15.079 0 0 1-2.536-.657l.072-2.767c.25.123.555.238.916.337.357.105.734.198 1.123.284.391.087.784.151 1.174.2a9.61 9.61 0 0 0 1.082.068c.937 0 1.646-.199 2.121-.597.477-.398.717-.975.717-1.726 0-.358-.071-.667-.211-.926a2.085 2.085 0 0 0-.623-.681 5.025 5.025 0 0 0-.971-.526c-.377-.157-.8-.321-1.269-.493a12.944 12.944 0 0 1-1.561-.681 4.578 4.578 0 0 1-1.254-.962c-.361-.391-.641-.876-.844-1.455-.206-.579-.305-1.305-.305-2.183 0-.751.128-1.431.385-2.041a4.242 4.242 0 0 1 1.102-1.548c.479-.423 1.061-.744 1.749-.974.688-.225 1.472-.339 2.347-.339a13.098 13.098 0 0 1 4.01.61l-.045 2.653a17.11 17.11 0 0 0-1.983-.412 11.854 11.854 0 0 0-1.702-.153c-.826 0-1.46.191-1.898.575-.438.383-.656.927-.656 1.629 0 .377.078.699.233.964.156.264.377.499.668.703.289.203.635.392 1.033.562.4.174.84.353 1.324.538.564.222 1.074.468 1.535.74.464.273.859.607 1.188.997.329.391.58.853.762 1.384.18.532.27 1.173.27 1.925 0 .797-.131 1.517-.385 2.156a4.516 4.516 0 0 1-1.105 1.632 4.819 4.819 0 0 1-1.735 1.021c-.682.237-1.454.354-2.312.354M179.12 57.223a21.22 21.22 0 0 1 2.105-.271c.705-.054 1.404-.08 2.089-.08 2.55 0 4.403.484 5.561 1.453 1.156.969 1.736 2.527 1.736 4.669 0 2.113-.573 3.648-1.715 4.61-1.141.963-2.963 1.443-5.464 1.443H182.4v5.416h-3.281v-17.24zm4.711 9.173c.625 0 1.157-.061 1.594-.178.439-.116.789-.313 1.058-.586.265-.272.461-.624.587-1.055.124-.43.188-.959.188-1.584 0-1.233-.256-2.115-.764-2.639-.506-.524-1.394-.786-2.662-.786-.218 0-.461.017-.726.047-.267.032-.501.064-.704.095v6.593c.219.03.457.054.715.069.256.015.497.024.714.024M196.194 79.628c-1.157 0-2.369-.183-3.634-.542l.209-2.392c.639.155 1.213.273 1.713.352a9.45 9.45 0 0 0 1.432.118c.531 0 .989-.066 1.371-.199a2.09 2.09 0 0 0 .94-.646c.243-.296.423-.682.541-1.149.115-.468.175-1.04.175-1.714v-.634h-.116c-.721.939-1.729 1.409-3.027 1.409-1.406 0-2.451-.473-3.133-1.42-.68-.946-1.021-2.397-1.021-4.352 0-2.252.493-3.962 1.479-5.125.986-1.165 2.433-1.747 4.341-1.747.705 0 1.418.055 2.146.164.725.109 1.545.288 2.45.539v10.487c-.001 4.568-1.954 6.851-5.866 6.851m.657-7.579c.627 0 1.115-.264 1.468-.785.351-.523.526-1.422.526-2.689v-4.548a4.02 4.02 0 0 0-1.456-.26c-.435 0-.812.076-1.124.224-.313.149-.566.393-.764.727-.195.337-.335.778-.422 1.326-.086.546-.127 1.228-.127 2.04 0 1.454.141 2.479.433 3.074.289.594.776.891 1.466.891M208.887 74.746c-.767 0-1.573-.069-2.417-.211a15.113 15.113 0 0 1-2.533-.656l.069-2.768c.25.123.554.238.915.338.359.104.734.197 1.125.283.392.087.783.151 1.174.2.393.045.752.069 1.08.069.939 0 1.645-.2 2.121-.598.478-.398.717-.975.717-1.726 0-.358-.07-.667-.211-.926a2.049 2.049 0 0 0-.622-.681 4.864 4.864 0 0 0-.975-.526 28.429 28.429 0 0 0-1.266-.493 12.872 12.872 0 0 1-1.562-.681 4.548 4.548 0 0 1-1.254-.962 4.09 4.09 0 0 1-.844-1.455c-.207-.578-.307-1.305-.307-2.183 0-.75.13-1.431.387-2.04a4.257 4.257 0 0 1 1.105-1.549c.475-.423 1.057-.744 1.746-.974.688-.225 1.469-.339 2.348-.339a13.124 13.124 0 0 1 4.01.61l-.048 2.653a17.076 17.076 0 0 0-1.981-.412 11.83 11.83 0 0 0-1.701-.153c-.83 0-1.463.191-1.899.575-.437.383-.656.927-.656 1.629 0 .377.079.699.233.964.156.264.377.499.67.703.289.203.632.392 1.032.562.399.174.84.353 1.323.538a10.95 10.95 0 0 1 1.539.74c.459.274.854.607 1.182.997.331.391.585.853.764 1.384.181.532.271 1.173.271 1.925 0 .797-.133 1.517-.39 2.156a4.43 4.43 0 0 1-1.1 1.632 4.837 4.837 0 0 1-1.735 1.02c-.682.238-1.452.355-2.31.355m-3.099-22.754l3.613 1.688 3.613-1.688v2.253l-3.613 1.688-3.613-1.688v-2.253zM81.572 85.98h3.286v7.105h1.783l3.682-7.105h3.66l-4.15 7.812-1.15.631v.14l1.173.611 4.597 8.163h-3.659l-4.247-7.461h-1.689v7.461h-3.286zM101.441 97.262a5.144 5.144 0 0 1-.514.024h-1.209c-.132 0-.262-.004-.387-.013a4.77 4.77 0 0 0-.28-.012v6.075h-3.287V86.094c1.285-.233 2.683-.349 4.202-.349 2.549 0 4.4.458 5.56 1.382 1.157.922 1.736 2.409 1.736 4.457 0 1.298-.235 2.362-.706 3.191-.467.83-1.195 1.456-2.18 1.879l3.307 6.684h-3.4l-2.842-6.076zm-.959-2.534c.625 0 1.156-.055 1.596-.164.438-.107.787-.29 1.055-.54.267-.245.459-.574.588-.973.125-.398.187-.886.187-1.467 0-1.142-.254-1.948-.764-2.429-.508-.474-1.396-.713-2.661-.713-.172 0-.396.015-.67.045-.272.032-.528.063-.761.094v6.051c.218.034.462.056.726.071.266.018.499.025.704.025M115.681 103.573c-2.313 0-4.036-.729-5.16-2.194-1.125-1.462-1.689-3.695-1.689-6.698 0-3.017.564-5.264 1.689-6.729 1.124-1.475 2.848-2.206 5.16-2.206 2.334 0 4.062.731 5.196 2.206 1.134 1.466 1.702 3.713 1.702 6.729 0 3.02-.564 5.257-1.69 6.708-1.126 1.457-2.86 2.184-5.208 2.184m0-2.745c.643 0 1.187-.109 1.631-.33.448-.216.809-.572 1.092-1.064.281-.493.483-1.13.609-1.9.124-.777.188-1.726.188-2.853 0-1.125-.063-2.083-.188-2.874-.126-.789-.328-1.432-.609-1.922-.283-.493-.644-.851-1.092-1.082-.443-.225-.988-.338-1.631-.338-.624 0-1.158.113-1.605.338-.447.231-.811.589-1.09 1.082-.283.49-.484 1.133-.611 1.922-.125.791-.188 1.749-.188 2.874 0 1.112.063 2.059.188 2.838.127.783.328 1.422.611 1.915.279.492.641.849 1.078 1.064.438.221.976.33 1.617.33M124.784 85.98h4.67l3.213 9.615.586 2.748h.164l.61-2.748 3.215-9.615h4.693v17.357h-3.098V90.223h-.142l-.772 2.791-3.191 9.455h-2.841l-3.166-9.455-.796-2.791h-.117v13.114h-3.028zM144.771 85.98h10.137v2.77h-6.854v4.479h6.1v2.767h-6.1v4.574h7.063v2.769h-10.346V85.98zm1.713-5.116l3.613 1.688 3.611-1.688v2.252l-3.611 1.689-3.613-1.689v-2.252zM162.951 97.262a5.24 5.24 0 0 1-.516.024h-1.207c-.133 0-.262-.004-.387-.013a4.884 4.884 0 0 0-.283-.012v6.075h-3.285V86.094c1.285-.233 2.685-.349 4.2-.349 2.55 0 4.401.458 5.56 1.382 1.158.922 1.736 2.409 1.736 4.457 0 1.298-.232 2.362-.703 3.191-.469.83-1.197 1.456-2.182 1.879l3.308 6.684h-3.4l-2.841-6.076zm-3.52-16.398l3.615 1.688 3.611-1.688v2.252l-3.611 1.689-3.615-1.689v-2.252zm2.559 13.864c.625 0 1.157-.055 1.595-.164.438-.107.789-.29 1.057-.54.265-.245.462-.574.587-.973.125-.398.189-.886.189-1.467 0-1.142-.256-1.948-.766-2.429-.506-.474-1.396-.713-2.662-.713-.174 0-.395.015-.668.045-.274.032-.527.063-.764.094v6.051c.219.034.463.056.726.071.267.018.502.025.706.025M170.974 85.98h3.283v17.357h-3.283V85.98zm.35-1.315l1.619-3.872h3.311l-2.581 4.06-2.349-.188zM176.253 100.383l7.106-11.401v-.212h-6.804v-2.79h10.488v2.979l-7.134 11.402v.186h7.44v2.791h-11.098v-2.955zm2.274-19.519l3.613 1.688 3.613-1.688v2.252l-3.613 1.689-3.613-1.689v-2.252z"/></g></symbol><symbol id="icon-phone" viewBox="0 0 27.412 26.707"><title>Telefon</title><path fill="currentColor" d="M20.778 17.019c-1.742-.41-3.968-1.472-4.777-2.797-.449-.738-.496-1.57-.133-2.281.02-.039.055-.094.082-.14-.019-.157.016-.364.129-.633.008-.02.008-.024.016-.031H7.142l.011.019v.004c.2.312.375.594.469.773.371.719.32 1.551-.129 2.289-.804 1.325-3.035 2.391-4.777 2.797l-.481 8.078c-.05.883.528 1.61 1.289 1.61H19.97c.761 0 1.343-.727 1.289-1.61l-.481-8.078zM9.06 22.582H7.513c-.282 0-.512-.231-.512-.516s.227-.515.512-.515H9.06c.281 0 .515.23.515.515s-.234.516-.515.516zm0-1.965H7.513a.514.514 0 0 1 0-1.027H9.06a.513.513 0 1 1 0 1.027zm0-1.961H7.513a.514.514 0 0 1-.512-.516c0-.285.227-.515.512-.515H9.06c.281 0 .515.23.515.515a.517.517 0 0 1-.515.516zm3.461 3.926h-1.547a.515.515 0 1 1 0-1.031h1.547a.514.514 0 1 1 0 1.031zm0-1.965h-1.547a.514.514 0 0 1 0-1.027h1.547a.514.514 0 0 1 0 1.027zm0-1.961h-1.547a.515.515 0 1 1 0-1.031h1.547a.514.514 0 1 1 0 1.031zm3.46 3.926h-1.542a.515.515 0 1 1 0-1.031h1.542a.514.514 0 1 1 0 1.031zm0-1.965h-1.542a.515.515 0 1 1 0-1.027h1.542a.515.515 0 0 1 0 1.027zm0-1.961h-1.542a.515.515 0 1 1 0-1.031h1.542a.514.514 0 1 1 0 1.031zm6.106-10.894c.008.14.039.285.016.425-.129.836-.567 1.606-.832 2.414-.344 1.028-5.559.246-5.235-1.093.125-.496.731-1.934.684-2.438-.047-.453-.711-.656-1.25-.57-1.438.222-3.215.762-4.711 1.133-.039.011-.082.019-.125.031-.043.008-.082.019-.125.031v-.004c-1.5.352-3.324.684-4.707 1.137-.528.172-1.02.652-.856 1.078.188.473 1.383 1.473 1.719 1.859.902 1.043-3.387 4.114-4.16 3.356-.606-.594-1.344-1.082-1.844-1.766-.082-.117-.117-.258-.18-.386-1.449-2.95.473-6.774 4.442-8.075a78.753 78.753 0 0 1 4.586-1.343v-.008l.125-.024c.043-.011.086-.027.125-.035l.004.008a76.174 76.174 0 0 1 4.695-.898c4.125-.649 7.578 1.882 7.629 5.168zm4.523 3.425l-1.101-.519c1.691-3.586.148-7.879-3.438-9.571L22.587 0c4.195 1.976 6 6.996 4.023 11.187zm-1.898-.894l-1.098-.52a5.098 5.098 0 0 0-2.437-6.777l.515-1.098a6.317 6.317 0 0 1 3.02 8.395zm0 0"/></symbol><symbol id="icon-photos" viewBox="0 0 28.902 24"><path fill="currentColor" d="M24.258 3.195H1.449C.648 3.195 0 3.843 0 4.644v17.742c0 .797.648 1.45 1.449 1.45h22.809c.801 0 1.449-.653 1.449-1.45V4.644a1.45 1.45 0 0 0-1.449-1.449zm-1.449 2.898v13.059l-3.313-4.023a.363.363 0 0 0-.492-.059l-3.852 2.812-6.617-6.437a.393.393 0 0 0-.289-.102.377.377 0 0 0-.262.153l-5.086 7.281V6.093h19.911zm-8.688 5.43a2.357 2.357 0 0 1 2.352-2.355 2.354 2.354 0 0 1 0 4.707 2.355 2.355 0 0 1-2.352-2.352zm13.695 7.059a1.087 1.087 0 0 1-1.086-1.086V2.168H4.164a1.086 1.086 0 0 1-1.086-1.082C3.078.484 3.566 0 4.164 0h23.652c.602 0 1.086.484 1.086 1.086V17.5c0 .597-.484 1.082-1.086 1.082zm0 0"/></symbol><symbol id="icon-presentation" viewBox="0 0 24.941 21.973"><path fill="currentColor" d="M24.625 3.942h-7.48v-.848h-1.981v.848H7.559v1.019h.503v2.243l-1.164-.551H5.16L3.98 8.02 2.84 6.653l-2.508.465-.16 5.558h1.062l.059 1.156h.16v6.727h-.211L0 20.829v1.144h1.059l1.23-.199.012.199h1.367v-6.918h.777v6.918h1.367l.012-.199 1.235.199h1.054v-1.144l-1.242-.266H6.66v-6.731h.195l.254-5.121.953.43v5.887h7.309v1.875l-4.035 4.551h1.449l2.723-3.079v3.079h.836v-3.075l2.718 3.075h1.473l-4.058-4.551v-1.875h8.148V4.961h.316V3.942h-.316zm-.715 10.336H8.777V9.465l2.973 1.348-.012-1.856-2.961-1.41V4.961H23.91v9.317zm0 0"/><path fill="currentColor" d="M16.273 13.532a3.68 3.68 0 0 0 2.489-.969l-1.532-1.586a1.488 1.488 0 0 1-2.445-1.133c0-.777.602-1.414 1.363-1.48V6.161a3.69 3.69 0 0 0-3.566 3.683 3.693 3.693 0 0 0 3.691 3.688zm0 0"/><path fill="currentColor" d="M17.711 11.09l1.527 1.59a3.68 3.68 0 0 0 1.196-2.59l-2.207.008a1.486 1.486 0 0 1-.516.992zm0 0M17.98 9.707c0 .047-.003.094-.007.141l2.207-.008c0-.047.004-.09.004-.133a3.692 3.692 0 0 0-3.688-3.687c-.043 0-.086 0-.125.004v2.207c.039-.004.082-.008.125-.008.816 0 1.484.664 1.484 1.484zm0 0M21.383 10.176h1.848v.449h-1.848zM21.383 10.934h1.848v.453h-1.848zM21.383 11.719h1.848v.449h-1.848zM21.383 12.52h1.848v.449h-1.848zM21.383 13.309h1.848v.449h-1.848zM7.125 3.094a3.093 3.093 0 1 1-6.184 0 3.091 3.091 0 1 1 6.184 0zm0 0"/></symbol><symbol id="icon-teacher_table" viewBox="0 0 11.749 12"><path fill="currentColor" d="M.183 3.523a1.58 1.58 0 1 1 3.16-.003 1.58 1.58 0 0 1-3.16.003zm7 1.477a.544.544 0 0 0-.739.18L5.39 6.91l-1.485-.832c-.672-.41-.996-.605-1.988-.605h-.305C-.313 5.699.022 7.242.022 7.242L.253 12l3.391-.039-.133-4.719 1.808.856c.082.047.172.07.262.07a.54.54 0 0 0 .457-.258l1.324-2.172A.538.538 0 0 0 7.183 5zm-4.282-.164a1.87 1.87 0 0 1-.386.258v.246c.14.019.269.039.386.074v-.578zM11.749 0H2.515v1.953c.14.067.269.152.386.254V.387h8.465v5.789H7.288l-.234.386h4.695V0zM5.413 6.562l.234-.386H4.413l.691.386h.309zm3.262-3.906l-.188-.105-1.293 2.254.188.105 1.293-2.254zm0 0"/></symbol></svg>