<?xml version="1.0" encoding="UTF-8"?><!DOCTYPE svg PUBLIC "-//W3C//DTD SVG 1.1//EN" "http://www.w3.org/Graphics/SVG/1.1/DTD/svg11.dtd"><svg xmlns="http://www.w3.org/2000/svg"><symbol id="icon-books" viewBox="0 0 20 20"><path fill="currentColor" d="M0 16.29c0 1.256 1.02 2.277 2.276 2.277h16.46v-1.012H17.68v-2.53h1.055v-.442H20V13.57h-.76v-2.528H20V10.03h-.822v-.863l-1.25-2.34h1.313v-1.36l-3.3-4.034H4.295L1.292 6.165c-.514.418-.85 1.047-.85 1.76 0 1.246 1.01 2.26 2.255 2.273-.837.336-1.432 1.153-1.432 2.11 0 .694.32 1.31.81 1.727C.916 14.138 0 15.105 0 16.29zm1.454-8.366c0-.472.262-.88.646-1.096h15.076v2.36H2.72c-.698 0-1.266-.566-1.266-1.264zm2.087 3.12h14.69v2.528H3.54c-.696 0-1.264-.567-1.264-1.264 0-.698.567-1.265 1.265-1.265zm-1.264 3.982H16.67v2.53H2.276c-.697 0-1.264-.568-1.264-1.266 0-.697.567-1.264 1.264-1.264zm0 0"/></symbol><symbol id="icon-building" viewBox="0 0 25.602 25.414"><title>Adresa</title><g fill="currentColor"><path d="M12 6.86l5.203-5.6 5.445 6.86 1.094.106L17.566 0l-8.79 2.168-5.44 5.753L12 6.86zm0 0M21.957 14.894V8.117L17.172 2.04l-4.926 5.3L3.79 8.374v6.515L0 18.043l2.25.03v6.27l9.848 1.07 6.015-.613v-6.183l3.547-.067v5.89l1.77-.18v-6.05h2.172l-3.645-3.316zM4.8 9.88l2.427-.244v2.77l-2.426.152v-2.68zm2.51 11.745l-2.435-.14V18.8l2.434.05v2.775zm0-4.5l-2.435.004v-2.685l2.434-.09v2.77zm1.073-7.633l2.672-.266v2.91l-2.672.168V9.492zm2.762 12.324l-2.68-.152v-2.817l2.68.06v2.91zm0-4.727l-2.68.003V14.28l2.68-.1v2.91zm2.187-7.895l2.898.293v2.836l-2.898-.184V9.195zm.098 4.867l2.89.113v2.832L13.43 17v-2.938zm3.03 7.543l-2.878.164v-2.934l2.88-.06v2.83zm.544-14.47c-.547-.073-.996-.803-.996-1.635 0-.83.45-1.422.996-1.33.54.09.973.822.973 1.63 0 .81-.434 1.407-.973 1.336zm.894 2.54l2.58.258v2.68l-2.58-.164V9.674zm2.66 7.364l-2.574-.01v-2.77l2.575.103v2.676zm0 0"/></g></symbol><symbol id="icon-documents" viewBox="0 0 20 20"><path fill="currentColor" d="M19.755 7.36c-.21-.262-.53-.416-.866-.416h-1.112c0-.614-.497-1.11-1.11-1.11h-1.112V4.72c0-.614-.497-1.11-1.11-1.11h-.557V1.388c0-.307-.25-.557-.557-.557H2.223c-.31 0-.557.25-.557.556v2.22H1.11C.498 3.61 0 4.11 0 4.723v13.333c0 .614.497 1.11 1.11 1.11h15.556c.52 0 .972-.36 1.085-.87l2.223-10c.074-.328-.008-.67-.218-.934zM1.667 18.056H1.11V4.722h.557v13.333zM13.333 5.833c-.614 0-1.11.497-1.11 1.11H5.554c-.52 0-.972.363-1.085.87 0 0-2.248 10.16-2.248 10.242V1.39h11.11v4.443zm1.11 0h-.555v-1.11h.556v1.11zm-3.406-1.98h-6.63c-.305 0-.555-.25-.555-.557 0-.306.25-.556.556-.556h6.63c.305 0 .555.25.555.556 0 .306-.25.556-.556.556zm0 2.258h-6.63c-.305 0-.555-.248-.555-.555 0-.305.25-.555.556-.555h6.63c.305 0 .555.25.555.556 0 .306-.25.555-.556.555zm0 0"/></symbol><symbol id="icon-graduation" viewBox="0 0 22.023 15.563"><path fill="currentColor" d="M18.766 9.782l-.57-3.286-6.97 4.157-6.835-4.157-.566 3.547c0-.004.008-.007.012-.015-.082.136-.125.277-.125.418 0 1.254 5.263 5.117 7.013 5.117 1.754 0 8.156-3.86 8.156-5.117 0-.133-.044-.266-.114-.664zm-7.485.136L.57 3.426 11.31 0l10.713 3.375L11.28 9.918zM.64 4L0 11.114l.64 2.132.598-2.132L.64 4zm0 0"/></symbol><symbol id="icon-group" viewBox="0 0 70.855 64.945"><path fill="currentColor" d="M19.445 9.082C19.445 4.066 23.512 0 28.53 0c5.017 0 9.083 4.066 9.083 9.082 0 5.016-4.066 9.082-9.082 9.082-5.018 0-9.085-4.066-9.085-9.082zm13.45 15.27c.09-1.977.773-3.81 1.867-5.32-.77-.16-1.563-.247-2.38-.247h-7.706c-.813 0-1.606.086-2.37.242 1.167 1.618 1.862 3.594 1.874 5.73 1.418-.78 3.043-1.222 4.77-1.222 1.402 0 2.734.293 3.945.817zm1.54.816c2.635 1.656 4.487 4.453 4.823 7.703 1.074.5 2.27.794 3.535.794 4.62 0 8.367-3.75 8.367-8.37s-3.746-8.368-8.367-8.368c-4.578 0-8.293 3.68-8.36 8.242zM28.948 42.3c4.62 0 8.366-3.745 8.366-8.366 0-4.622-3.746-8.368-8.367-8.368-4.622 0-8.372 3.746-8.372 8.368 0 4.62 3.75 8.367 8.37 8.367zm3.55.57h-7.102c-5.906 0-10.714 4.81-10.714 10.716v8.687l.023.133.598.188c5.636 1.76 10.535 2.35 14.566 2.35 7.876 0 12.442-2.245 12.724-2.39l.558-.28h.06v-8.688c0-5.906-4.806-10.715-10.712-10.715zm13.844-8.636h-7.047c-.074 2.82-1.277 5.36-3.18 7.184 5.25 1.562 9.09 6.43 9.09 12.184v2.675c6.957-.257 10.97-2.226 11.23-2.36l.563-.284h.06v-8.688c0-5.906-4.806-10.71-10.716-10.71zm1.886-17.488c2.637 1.656 4.49 4.453 4.825 7.703 1.074.503 2.27.792 3.535.792 4.62 0 8.367-3.746 8.367-8.367 0-4.62-3.746-8.367-8.367-8.367-4.578 0-8.293 3.68-8.36 8.238zm11.91 9.066h-7.046c-.074 2.82-1.278 5.36-3.18 7.184 5.25 1.563 9.09 6.434 9.09 12.184v2.675c6.957-.253 10.97-2.226 11.23-2.36l.56-.28h.06v-8.688c0-5.906-4.807-10.715-10.713-10.715zm-45.874 7.852c1.636 0 3.16-.48 4.453-1.293.41-2.675 1.842-5.015 3.89-6.604.007-.157.023-.313.023-.473 0-4.62-3.746-8.367-8.367-8.367s-8.368 3.746-8.368 8.367c0 4.625 3.747 8.37 8.368 8.37zm7.515 7.754c-1.893-1.816-3.092-4.344-3.178-7.145-.262-.02-.52-.04-.79-.04h-7.097C4.805 34.234 0 39.04 0 44.95v8.683l.023.137.598.187c4.52 1.41 8.56 2.063 12.068 2.266v-2.62c0-5.755 3.84-10.626 9.093-12.185zm0 0"/></symbol><symbol id="icon-home" viewBox="0 0 20 20"><path fill="currentColor" d="M19.75 9.766c.362-.4.328-1.01-.08-1.366L10.735.58C10.327.225 9.678.232 9.28.595L.31 8.82c-.397.362-.418.973-.044 1.36l.224.235c.374.39.976.435 1.346.105l.67-.6v8.786c0 .54.438.976.977.976H6.98c.54 0 .976-.437.976-.976v-6.15h4.458v6.15c-.007.54.378.974.918.974h3.704c.54 0 .976-.435.976-.974v-8.664s.184.16.414.363c.228.2.707.04 1.07-.36l.253-.28zm0 0"/></symbol><symbol id="icon-info" viewBox="0 0 20 20"><path fill="currentColor" d="M9.997 0C4.477 0 0 4.477 0 9.997 0 15.52 4.477 20 9.997 20 15.52 20 20 15.52 20 9.997 20 4.477 15.52 0 9.997 0zm2.084 15.5c-.515.2-.925.354-1.23.46-.307.11-.662.163-1.068.163-.624 0-1.11-.153-1.455-.46-.347-.3-.516-.69-.516-1.156 0-.182.014-.367.038-.558.025-.19.067-.402.124-.642l.645-2.277c.057-.218.107-.424.144-.615.04-.2.06-.375.06-.537 0-.29-.06-.492-.182-.607-.12-.114-.347-.168-.686-.168-.165 0-.34.024-.513.074-.175.053-.323.103-.446.148l.17-.698c.42-.174.825-.318 1.21-.442.384-.125.747-.186 1.09-.186.62 0 1.096.152 1.43.45.334.298.505.687.505 1.166 0 .1-.014.273-.035.52-.024.254-.066.48-.128.688l-.64 2.268c-.054.182-.1.393-.145.624-.04.232-.06.41-.06.53 0 .3.07.508.2.615.138.11.37.164.704.164.157 0 .33-.03.53-.082.194-.053.338-.103.43-.144l-.175.7zm-.11-9.21c-.302.277-.66.418-1.083.418-.417 0-.78-.14-1.082-.417-.3-.276-.452-.615-.452-1.01s.153-.733.45-1.015c.303-.276.667-.417 1.083-.417.422 0 .782.14 1.083.417.296.28.445.62.445 1.014 0 .395-.148.734-.445 1.01zm0 0"/></symbol><symbol id="icon-letter" viewBox="0 0 22.164 18.254"><title>E-mail</title><g fill="currentColor"><path d="M19.43 7.45L11.082 13.4 2.734 7.45 0 5.5v12.754h22.164V5.5L19.43 7.45zm0 0M2.355 6.648l8.348 5.95c.113.082.246.125.38.125.132 0 .265-.043.382-.125l8.347-5.95c.172-.125.274-.324.274-.535V.656c0-.363-.293-.656-.656-.656H2.734c-.363 0-.656.293-.656.656v5.457c0 .215.106.414.277.535zM3.39 1.312h15.383v4.46l-7.69 5.486L3.39 5.773v-4.46zm0 0M5.988 4.12h9.774c.394 0 .715-.32.715-.714 0-.394-.32-.71-.715-.71H5.988c-.394 0-.715.316-.715.71 0 .395.32.715.715.715zm0 0M16.477 5.887c0-.39-.32-.71-.715-.71H5.988c-.394 0-.715.315-.715.71 0 .394.32.715.715.715h9.774c.394 0 .715-.32.715-.715zm0 0"/></g></symbol><symbol id="icon-logo" viewBox="0 0 214.423 122.182"><title>Logo</title><g fill="#EE7D00"><path d="M40.672 22.528c5.624-.198 10.01-5.4 9.795-11.62-.215-6.22-4.95-11.102-10.57-10.902-5.627.2-10.01 5.4-9.797 11.62.215 6.222 4.948 11.103 10.572 10.902M108.623 30.13c4.963-.174 8.836-4.517 8.656-9.703-.183-5.186-4.35-9.247-9.312-9.073-4.963.172-8.84 4.514-8.66 9.7.184 5.186 4.354 9.25 9.315 9.076M91.403 32.6c4.432-2.06 5.932-7.47 3.352-12.087-2.58-4.615-8.26-6.687-12.693-4.627-4.43 2.06-5.93 7.47-3.35 12.085 2.58 4.616 8.26 6.688 12.69 4.63M124.813 32.903c4.564 1.746 10.09-.716 12.34-5.5 2.252-4.785.38-10.078-4.186-11.824-4.563-1.744-10.088.72-12.338 5.502-2.253 4.784-.378 10.077 4.183 11.82"/><path d="M139.952 42.685c-20.267-12.143-47.824-12.3-68.348-.143-8.478-10.203-21.667-17.88-36.47-17.34-1.96.072-3.544 1.596-3.48 3.367.128 3.563.256 4.324.383 7.888l.043 1.21c-3.256.437-14.867 2.64-20.332 12.345-.406.72-.53 1.564-.35 2.37l.916 4.07C5.036 58.942.604 67.042.394 67.432c-.628 1.167-.48 2.534.25 3.54.016.037.02.078.035.115l19.77 48.994c.388.967 1.206 1.697 2.212 1.977.297.083.602.122.904.122.72 0 1.428-.23 2.016-.67 15.628-11.688 37.52-15.303 43.384-16.09.296-.01.597-.047.9-.115.363-.045.58-.066.604-.068 1.184-.116 2.18-.84 2.683-1.855 2.8-3.145-1.643-7.428-4.7-10.137-7.292-6.46-17.493-9.03-27.514-9.47-.655-18.24-1.31-33.683-1.964-51.925 11.67 1.435 22.462 8.65 28.71 16.913 1.04 1.376 3.344 2.083 4.963 1 18.858-12.628 44.617-12.89 63.873-1.355 3.864 2.32 7.25-3.435 3.43-5.725zm-114.846 70.99L7.166 69.218c1.35-1.99 3.794-4.884 6.636-6.153l9.314 41.426c.234 1.043.954 1.912 1.938 2.34.982.426 2.11.357 3.037-.182.112-.066 8.373-4.753 23.078-4.353-8.058 2.27-17.563 5.844-26.062 11.377zm35.87-17.605l.083.436c-15.555-2.43-26.695.414-32.287 2.52L18.256 52.25c3.872-5.626 11.23-7.365 14.066-7.842.512 14.22 1.02 28.44 1.53 42.664.067 1.81 1.752 3.133 3.715 3.12 8.284-.04 16.68 1.394 23.408 5.878z"/></g><g fill="#1D1D1B"><path d="M80.12 57.105h3.235l3.05 10.957.683 3.47h.28l.728-3.47 3.028-10.957h3.163l-4.783 17.358h-4.527zM101.56 74.702c-2.315 0-4.034-.732-5.16-2.196-1.127-1.462-1.69-3.693-1.69-6.697 0-3.022.564-5.264 1.69-6.733 1.126-1.47 2.844-2.205 5.16-2.205 2.332 0 4.062.734 5.198 2.205 1.13 1.47 1.698 3.712 1.698 6.732 0 3.017-.563 5.253-1.69 6.71-1.124 1.454-2.86 2.182-5.205 2.182m0-2.747c.643 0 1.186-.108 1.63-.33.446-.217.812-.57 1.093-1.066.28-.494.485-1.127.607-1.9.128-.774.19-1.725.19-2.85 0-1.127-.063-2.086-.19-2.875-.122-.79-.327-1.43-.607-1.925-.28-.492-.646-.85-1.092-1.077-.444-.227-.987-.343-1.63-.343-.627 0-1.16.116-1.605.343-.447.227-.81.585-1.09 1.077-.283.495-.488 1.136-.613 1.925-.122.79-.187 1.748-.187 2.874 0 1.11.064 2.056.187 2.838.125.784.33 1.418.612 1.91.28.496.64.85 1.08 1.067.435.222.975.33 1.617.33"/><path d="M114.884 74.746c-.766 0-1.57-.07-2.414-.21-.848-.143-1.692-.36-2.534-.657l.07-2.77c.25.124.552.24.913.34.36.103.735.196 1.124.282.392.087.784.15 1.174.2.393.045.752.07 1.082.07.936 0 1.645-.2 2.12-.6.478-.397.718-.974.718-1.725 0-.358-.07-.667-.21-.926-.144-.26-.35-.482-.624-.68-.273-.194-.598-.37-.973-.526-.376-.157-.8-.32-1.266-.493-.563-.204-1.082-.43-1.562-.68-.48-.25-.896-.57-1.255-.962-.362-.39-.642-.876-.845-1.455-.202-.578-.305-1.305-.305-2.183 0-.75.127-1.43.388-2.04.257-.61.622-1.126 1.1-1.55.478-.422 1.064-.743 1.75-.973.687-.225 1.47-.34 2.345-.34.658 0 1.315.047 1.973.142.656.093 1.335.25 2.04.468l-.047 2.653c-.64-.173-1.302-.31-1.984-.41-.68-.103-1.245-.154-1.698-.154-.83 0-1.462.19-1.9.575-.437.384-.656.928-.656 1.63 0 .377.077.7.234.964.154.264.375.5.666.703.293.203.637.392 1.033.562.4.173.84.352 1.326.537.565.222 1.075.468 1.537.74.46.274.858.607 1.187.997.328.39.582.853.762 1.384.18.532.27 1.173.27 1.925 0 .797-.13 1.517-.385 2.156-.258.642-.627 1.185-1.104 1.63-.478.447-1.057.787-1.735 1.02-.682.24-1.453.356-2.314.356m-3.096-22.754l3.613 1.688 3.612-1.688v2.253l-3.61 1.688-3.614-1.688v-2.253zM122.393 57.223c.705-.125 1.407-.217 2.11-.27.705-.055 1.4-.08 2.09-.08 2.547 0 4.4.483 5.557 1.452 1.16.97 1.738 2.527 1.738 4.67 0 2.112-.572 3.647-1.715 4.61-1.142.962-2.963 1.442-5.464 1.442h-1.035v5.416h-3.282v-17.24zm4.714 9.173c.623 0 1.157-.06 1.596-.178.438-.116.787-.313 1.055-.586.268-.272.463-.624.588-1.055.125-.43.188-.96.188-1.584 0-1.233-.254-2.115-.764-2.64-.508-.523-1.395-.785-2.662-.785-.217 0-.46.017-.726.047-.267.032-.5.064-.706.095v6.593c.22.03.46.054.717.07.257.014.497.023.714.023M140.033 74.746c-.767 0-1.57-.07-2.414-.21-.85-.142-1.692-.36-2.536-.658l.072-2.767c.248.124.553.24.912.338.36.105.737.198 1.127.284.39.087.78.15 1.176.2.39.045.75.068 1.077.068.938 0 1.648-.2 2.123-.597.475-.398.717-.975.717-1.726 0-.358-.072-.667-.213-.926-.14-.26-.35-.482-.622-.68-.274-.194-.597-.37-.972-.526-.377-.157-.798-.32-1.268-.493-.563-.204-1.083-.43-1.56-.68-.477-.25-.896-.57-1.255-.962-.36-.39-.642-.876-.847-1.455-.2-.58-.303-1.305-.303-2.183 0-.75.13-1.43.386-2.04.258-.61.626-1.126 1.102-1.55.477-.422 1.06-.743 1.748-.973.69-.225 1.47-.34 2.347-.34.657 0 1.314.047 1.972.142.658.093 1.336.25 2.038.468l-.044 2.653c-.643-.173-1.303-.31-1.984-.41-.678-.103-1.246-.154-1.7-.154-.83 0-1.46.19-1.9.575-.437.384-.655.928-.655 1.63 0 .377.077.7.234.964.155.264.377.5.668.703.29.203.634.392 1.034.562.4.173.84.352 1.324.537.563.222 1.075.468 1.54.74.46.273.854.607 1.18.997.33.39.585.853.763 1.384.18.532.272 1.173.272 1.925 0 .797-.13 1.517-.39 2.156-.257.642-.626 1.185-1.103 1.63-.478.447-1.056.787-1.735 1.022-.68.237-1.452.354-2.312.354M154.132 74.582c-1.017 0-1.83-.333-2.44-.996-.61-.666-.915-1.545-.915-2.64 0-2.41 1.504-3.722 4.505-3.94l2.157-.142v-.398c0-.483-.03-.885-.095-1.197-.06-.313-.172-.564-.34-.752-.164-.188-.387-.315-.668-.386-.282-.072-.635-.105-1.056-.105-.17 0-.4.01-.69.033-.29.025-.595.052-.917.084-.32.032-.633.065-.936.105-.306.04-.562.08-.764.13l-.213-2.35c.674-.123 1.36-.225 2.055-.303.695-.078 1.348-.117 1.957-.117 1.705 0 2.945.316 3.72.95.774.63 1.16 1.652 1.16 3.06v8.843H158l-.258-1.524h-.188c-.406.453-.904.84-1.5 1.16-.594.323-1.234.482-1.924.482m1.195-2.37c.346 0 .71-.104 1.092-.316.382-.21.722-.417 1.02-.624v-2.438l-1.454.143c-.737.077-1.255.245-1.56.504-.307.26-.46.655-.46 1.184 0 .5.12.885.353 1.15.234.266.568.4 1.007.4M171.61 74.746c-.767 0-1.57-.07-2.416-.21-.847-.142-1.69-.36-2.536-.658l.072-2.767c.25.124.555.24.916.338.357.105.734.198 1.123.284.39.087.783.15 1.173.2.395.045.754.068 1.082.068.937 0 1.646-.2 2.12-.597.478-.398.718-.975.718-1.726 0-.358-.07-.667-.21-.926-.144-.26-.35-.482-.624-.68-.274-.194-.6-.37-.972-.526-.377-.157-.8-.32-1.27-.493-.563-.204-1.082-.43-1.56-.68-.477-.25-.893-.57-1.254-.962-.36-.39-.64-.876-.844-1.455-.206-.58-.305-1.305-.305-2.183 0-.75.128-1.43.385-2.04.256-.61.625-1.126 1.102-1.55.48-.422 1.06-.743 1.75-.973.687-.225 1.47-.34 2.346-.34.654 0 1.314.047 1.97.142.655.093 1.34.25 2.04.468l-.045 2.653c-.643-.173-1.303-.31-1.983-.41-.68-.103-1.247-.154-1.702-.154-.826 0-1.46.19-1.898.575-.438.384-.656.928-.656 1.63 0 .377.078.7.233.964.156.264.377.5.668.703.29.203.635.392 1.033.562.4.173.84.352 1.324.537.564.222 1.074.468 1.535.74.464.273.86.607 1.188.997.33.39.58.853.762 1.384.18.532.27 1.173.27 1.925 0 .797-.13 1.517-.385 2.156-.26.642-.628 1.185-1.105 1.63-.48.447-1.056.787-1.735 1.022-.682.237-1.454.354-2.312.354M179.12 57.223c.7-.125 1.403-.217 2.105-.27.705-.055 1.404-.08 2.09-.08 2.55 0 4.402.483 5.56 1.452 1.156.97 1.736 2.527 1.736 4.67 0 2.112-.572 3.647-1.714 4.61-1.14.962-2.963 1.442-5.464 1.442H182.4v5.416h-3.28v-17.24zm4.71 9.173c.626 0 1.158-.06 1.595-.178.44-.116.79-.313 1.058-.586.265-.272.46-.624.587-1.055.124-.43.188-.96.188-1.584 0-1.233-.256-2.115-.764-2.64-.506-.523-1.394-.785-2.662-.785-.218 0-.46.017-.726.047-.267.032-.5.064-.704.095v6.593c.22.03.457.054.715.07.256.014.497.023.714.023M196.194 79.628c-1.157 0-2.37-.183-3.634-.542l.21-2.392c.638.155 1.212.273 1.712.352.502.077.977.118 1.432.118.53 0 .99-.066 1.37-.2.386-.133.698-.352.94-.645.244-.297.424-.683.542-1.15.115-.468.175-1.04.175-1.714v-.634h-.115c-.72.94-1.73 1.41-3.027 1.41-1.406 0-2.45-.474-3.133-1.42-.68-.947-1.02-2.398-1.02-4.353 0-2.253.492-3.963 1.478-5.126.986-1.165 2.433-1.747 4.34-1.747.706 0 1.42.055 2.147.164.725.11 1.545.29 2.45.54v10.487c0 4.568-1.954 6.85-5.866 6.85m.657-7.578c.628 0 1.116-.265 1.47-.786.35-.523.525-1.422.525-2.69v-4.547c-.452-.174-.938-.26-1.456-.26-.436 0-.813.076-1.125.224-.313.15-.566.394-.764.728-.194.337-.334.778-.42 1.326-.087.546-.128 1.228-.128 2.04 0 1.454.14 2.48.433 3.074.29.594.776.89 1.466.89"/><path d="M208.887 74.746c-.767 0-1.573-.07-2.417-.21-.844-.143-1.69-.36-2.533-.657l.07-2.77c.25.124.553.24.914.34.36.103.735.196 1.126.282.392.087.783.15 1.174.2.393.045.752.07 1.08.07.94 0 1.645-.2 2.12-.6.48-.397.718-.974.718-1.725 0-.358-.07-.667-.21-.926-.142-.26-.35-.482-.623-.68-.272-.194-.598-.37-.975-.526-.374-.157-.794-.32-1.266-.493-.564-.204-1.083-.43-1.562-.68-.477-.25-.895-.57-1.254-.962-.36-.39-.643-.876-.844-1.455-.207-.578-.307-1.305-.307-2.183 0-.75.13-1.43.387-2.04.26-.61.625-1.126 1.105-1.55.474-.422 1.056-.743 1.745-.973.688-.225 1.47-.34 2.348-.34.652 0 1.313.047 1.97.142.657.093 1.337.25 2.04.468l-.048 2.653c-.642-.173-1.302-.31-1.98-.41-.68-.103-1.247-.154-1.702-.154-.83 0-1.463.19-1.9.575-.436.384-.655.928-.655 1.63 0 .377.08.7.233.964.157.264.378.5.67.703.29.203.633.392 1.033.562.4.173.84.352 1.323.537.564.222 1.076.468 1.54.74.458.274.853.607 1.18.997.332.39.586.853.765 1.384.182.532.272 1.173.272 1.925 0 .797-.133 1.517-.39 2.156-.255.642-.622 1.185-1.1 1.63-.48.447-1.058.787-1.735 1.02-.682.24-1.452.356-2.31.356m-3.1-22.754l3.614 1.688 3.614-1.688v2.253l-3.613 1.688-3.612-1.688v-2.253zM81.572 85.98h3.286v7.105h1.783l3.683-7.105h3.66l-4.15 7.812-1.15.63v.14l1.173.612 4.597 8.163h-3.66l-4.246-7.46h-1.69v7.46h-3.285zM101.44 97.262c-.167.017-.34.024-.513.024h-1.209c-.132 0-.262-.004-.387-.013-.122-.008-.218-.012-.28-.012v6.076h-3.286V86.094c1.285-.233 2.683-.35 4.202-.35 2.55 0 4.4.46 5.56 1.383 1.157.922 1.736 2.41 1.736 4.457 0 1.298-.235 2.362-.706 3.19-.467.83-1.195 1.457-2.18 1.88l3.307 6.684h-3.4l-2.842-6.076zm-.958-2.534c.625 0 1.156-.055 1.596-.164.438-.107.787-.29 1.055-.54.267-.245.46-.574.588-.973.126-.397.188-.885.188-1.466 0-1.142-.254-1.948-.764-2.43-.508-.473-1.396-.712-2.66-.712-.173 0-.397.015-.67.045-.273.032-.53.063-.762.094v6.052c.218.034.462.056.726.07.266.02.5.026.704.026M115.68 103.573c-2.312 0-4.035-.73-5.16-2.194-1.124-1.463-1.688-3.696-1.688-6.7 0-3.016.564-5.263 1.69-6.728 1.123-1.475 2.847-2.206 5.16-2.206 2.333 0 4.06.73 5.195 2.206 1.134 1.466 1.702 3.713 1.702 6.73 0 3.02-.565 5.256-1.69 6.707-1.127 1.456-2.86 2.183-5.21 2.183m0-2.745c.644 0 1.188-.11 1.632-.33.448-.216.81-.572 1.092-1.064.28-.493.483-1.13.61-1.9.123-.777.187-1.726.187-2.853 0-1.124-.062-2.082-.187-2.873-.126-.79-.328-1.432-.61-1.922-.282-.493-.643-.85-1.09-1.082-.444-.225-.99-.338-1.632-.338-.623 0-1.157.113-1.604.338-.447.23-.81.59-1.09 1.082-.283.49-.484 1.133-.61 1.922-.126.79-.19 1.75-.19 2.874 0 1.113.064 2.06.19 2.84.126.782.327 1.42.61 1.914.28.492.64.85 1.078 1.064.438.22.976.33 1.617.33"/><path d="M124.784 85.98h4.67l3.213 9.615.586 2.748h.164l.61-2.748 3.215-9.615h4.693v17.357h-3.098V90.223h-.142l-.772 2.79-3.19 9.456h-2.842l-3.165-9.456-.796-2.79h-.118v13.113h-3.028zM144.77 85.98h10.138v2.77h-6.854v4.48h6.1v2.766h-6.1v4.574h7.063v2.77H144.77V85.98zm1.714-5.116l3.613 1.688 3.61-1.688v2.252l-3.61 1.69-3.613-1.69v-2.252zM162.95 97.262c-.17.017-.343.024-.515.024h-1.207c-.133 0-.262-.004-.387-.013-.125-.008-.22-.012-.282-.012v6.076h-3.285V86.094c1.285-.233 2.685-.35 4.2-.35 2.55 0 4.4.46 5.56 1.383 1.158.922 1.736 2.41 1.736 4.457 0 1.298-.233 2.362-.704 3.19-.47.83-1.197 1.457-2.182 1.88l3.308 6.684h-3.4l-2.84-6.076zm-3.52-16.398l3.616 1.688 3.61-1.688v2.252l-3.61 1.69-3.615-1.69v-2.252zm2.56 13.864c.625 0 1.157-.055 1.595-.164.438-.107.79-.29 1.057-.54.265-.245.462-.574.587-.973.124-.397.188-.885.188-1.466 0-1.142-.256-1.948-.766-2.43-.506-.473-1.396-.712-2.662-.712-.174 0-.395.015-.668.045-.274.032-.527.063-.764.094v6.052c.22.034.463.056.726.07.267.02.502.026.706.026"/><path d="M170.974 85.98h3.283v17.357h-3.283V85.98zm.35-1.315l1.62-3.872h3.31l-2.58 4.06-2.35-.188zM176.253 100.383l7.106-11.4v-.213h-6.805v-2.79h10.488v2.98l-7.134 11.4v.187h7.44v2.79h-11.1v-2.954zm2.274-19.52l3.613 1.69 3.613-1.69v2.253l-3.613 1.69-3.613-1.69v-2.252z"/></g></symbol><symbol id="icon-phone" viewBox="0 0 27.412 26.707"><title>Telefon</title><path fill="currentColor" d="M20.778 17.02c-1.742-.41-3.968-1.473-4.777-2.798-.448-.738-.495-1.57-.132-2.28.02-.04.055-.095.082-.14-.02-.158.016-.365.13-.634.007-.02.007-.024.015-.03H7.142l.01.018v.004c.2.312.376.594.47.773.37.72.32 1.55-.13 2.29-.803 1.324-3.034 2.39-4.776 2.796l-.48 8.077c-.05.883.527 1.61 1.288 1.61H19.97c.76 0 1.343-.727 1.29-1.61l-.482-8.078zM9.06 22.58H7.513c-.282 0-.512-.23-.512-.516s.228-.515.513-.515H9.06c.28 0 .515.23.515.516s-.234.516-.515.516zm0-1.965H7.513c-.282 0-.512-.23-.512-.516 0-.28.228-.51.513-.51H9.06c.28 0 .515.226.515.51 0 .287-.234.517-.515.517zm0-1.96H7.513c-.282 0-.512-.23-.512-.517 0-.285.228-.515.513-.515H9.06c.28 0 .515.23.515.515 0 .286-.234.516-.515.516zm3.46 3.925h-1.546c-.282 0-.516-.23-.516-.516s.23-.515.516-.515h1.547c.286 0 .516.23.516.516s-.23.516-.515.516zm0-1.965h-1.546c-.282 0-.516-.23-.516-.516 0-.28.23-.51.516-.51h1.547c.286 0 .516.226.516.51 0 .287-.23.517-.515.517zm0-1.96h-1.546c-.282 0-.516-.23-.516-.517 0-.285.23-.515.516-.515h1.547c.286 0 .516.23.516.515 0 .286-.23.516-.515.516zm3.46 3.925h-1.54c-.287 0-.517-.23-.517-.516s.23-.515.516-.515h1.54c.287 0 .517.23.517.516s-.23.516-.516.516zm0-1.965h-1.54c-.287 0-.517-.23-.517-.516 0-.28.23-.51.516-.51h1.54c.287 0 .517.226.517.51 0 .287-.23.517-.516.517zm0-1.96h-1.54c-.287 0-.517-.23-.517-.517 0-.285.23-.515.516-.515h1.54c.287 0 .517.23.517.515 0 .286-.23.516-.516.516zM22.088 7.76c.008.14.04.285.016.425-.13.836-.567 1.606-.832 2.414-.343 1.03-5.558.247-5.234-1.092.125-.496.73-1.934.684-2.438-.047-.453-.71-.656-1.25-.57-1.438.222-3.215.762-4.71 1.133l-.126.03-.125.032V7.69c-1.5.353-3.325.685-4.708 1.138-.528.172-1.02.652-.856 1.078.188.473 1.383 1.473 1.72 1.86.9 1.042-3.388 4.113-4.16 3.355-.607-.593-1.345-1.08-1.845-1.765-.08-.117-.116-.258-.18-.386-1.448-2.95.474-6.775 4.443-8.076C6.44 4.398 7.97 3.954 9.51 3.55v-.007l.124-.024c.043-.012.086-.028.125-.036l.003.008c1.554-.348 3.12-.648 4.695-.898 4.125-.65 7.578 1.882 7.63 5.168zm4.523 3.425l-1.1-.52c1.69-3.585.147-7.878-3.44-9.57L22.588 0c4.195 1.976 6 6.996 4.023 11.187zm-1.898-.894l-1.098-.52c1.196-2.54.106-5.578-2.437-6.777l.515-1.098c3.15 1.485 4.5 5.25 3.02 8.395zm0 0"/></symbol><symbol id="icon-photos" viewBox="0 0 28.902 24"><path fill="currentColor" d="M24.258 3.195H1.448C.65 3.195 0 3.843 0 4.645v17.74c0 .798.648 1.45 1.45 1.45h22.808c.8 0 1.45-.652 1.45-1.45V4.646c-.005-.802-.65-1.45-1.45-1.45zm-1.45 2.898v13.06l-3.312-4.024c-.12-.146-.336-.173-.492-.06l-3.852 2.812-6.617-6.437c-.078-.074-.183-.106-.29-.102-.104.012-.198.067-.26.153l-5.087 7.28V6.094h19.91zm-8.687 5.43c0-1.297 1.056-2.355 2.353-2.355 1.297 0 2.35 1.058 2.35 2.355s-1.053 2.352-2.35 2.352c-1.297 0-2.352-1.055-2.352-2.352zm13.696 7.06c-.597 0-1.086-.486-1.086-1.087V2.168H4.164c-.598 0-1.086-.485-1.086-1.082C3.078.484 3.566 0 4.164 0h23.652c.602 0 1.086.484 1.086 1.086V17.5c0 .597-.484 1.082-1.086 1.082zm0 0"/></symbol><symbol id="icon-presentation" viewBox="0 0 24.941 21.973"><path fill="currentColor" d="M24.625 3.942h-7.48v-.848h-1.98v.848H7.558v1.02h.502v2.242l-1.164-.55H5.16L3.98 8.02 2.84 6.653l-2.508.465-.16 5.558h1.062l.06 1.156h.16v6.727H1.24L0 20.83v1.143h1.06l1.23-.2.01.2H3.67v-6.918h.777v6.918h1.367l.012-.2 1.235.2h1.053V20.83l-1.242-.267h-.21v-6.73h.195L7.11 8.71l.952.43v5.888h7.31v1.875l-4.036 4.55h1.45l2.722-3.078v3.08h.836v-3.076l2.718 3.074h1.473l-4.058-4.55v-1.876h8.148V4.96h.316V3.943h-.315zm-.715 10.336H8.777V9.465l2.973 1.348-.012-1.856-2.96-1.41V4.96H23.91v9.318zm0 0M16.273 13.532c.957 0 1.832-.368 2.49-.97l-1.533-1.585c-.257.22-.593.352-.957.352-.82 0-1.488-.666-1.488-1.486 0-.777.602-1.414 1.363-1.48V6.16c-1.976.063-3.566 1.692-3.566 3.684 0 2.035 1.656 3.688 3.69 3.688zm0 0M17.71 11.09l1.528 1.59c.707-.648 1.16-1.566 1.196-2.59l-2.207.008c-.036.398-.23.746-.516.992zm0 0M17.98 9.707c0 .047-.003.094-.007.14l2.207-.007c0-.047.004-.09.004-.133 0-2.035-1.657-3.687-3.688-3.687-.043 0-.086 0-.125.004V8.23c.04-.003.083-.007.126-.007.816 0 1.484.664 1.484 1.484zm0 0"/><path fill="currentColor" d="M21.383 10.176h1.848v.45h-1.847zM21.383 10.934h1.848v.453h-1.847zM21.383 11.72h1.848v.448h-1.847zM21.383 12.52h1.848v.45h-1.847zM21.383 13.31h1.848v.448h-1.847zM7.125 3.094c0 1.707-1.383 3.094-3.09 3.094C2.325 6.188.94 4.8.94 3.094.94 1.384 2.325 0 4.036 0c1.707 0 3.09 1.383 3.09 3.094zm0 0"/></symbol><symbol id="icon-teacher_table" viewBox="0 0 11.749 12"><path fill="currentColor" d="M.183 3.523c0-.875.707-1.582 1.582-1.582.875 0 1.578.708 1.578 1.583 0 .872-.703 1.58-1.578 1.58-.875 0-1.582-.708-1.582-1.58zm7 1.477c-.254-.152-.582-.07-.74.18L5.39 6.91l-1.485-.832c-.672-.41-.996-.605-1.988-.605h-.305C-.313 5.7.022 7.243.022 7.243L.252 12l3.392-.04-.133-4.718 1.81.856c.08.047.17.07.26.07.18 0 .357-.094.458-.258l1.324-2.172c.153-.254.075-.582-.18-.738zM2.9 4.836c-.116.102-.245.187-.385.258v.246c.14.02.27.04.386.074v-.578zM11.75 0H2.514v1.953c.14.067.27.152.386.254V.387h8.466v5.79H7.288l-.234.385h4.695V0zM5.412 6.562l.234-.386H4.413l.69.386h.31zm3.262-3.906l-.188-.105-1.293 2.255.188.105 1.293-2.254zm0 0"/></symbol></svg>